<?xml version="1.0" encoding="iso-8859-1"?>
<!-- Generator: Adobe Illustrator 16.0.0, SVG Export Plug-In . SVG Version: 6.00 Build 0)  -->
<!DOCTYPE svg PUBLIC "-//W3C//DTD SVG 1.1//EN" "http://www.w3.org/Graphics/SVG/1.1/DTD/svg11.dtd">
<svg version="1.1" id="first" xmlns="http://www.w3.org/2000/svg" xmlns:xlink="http://www.w3.org/1999/xlink" x="0px" y="0px"
	 width="640px" height="1136px" viewBox="0 0 640 1136" style="enable-background:new 0 0 640 1136;" xml:space="preserve">
<g id="up">
	<g id="XMLID_1557_" data-delay="10" data-duration="10">
		
			<path id="XMLID_1746_" style="fill:none;stroke:#040000;stroke-width:9;stroke-linecap:round;stroke-linejoin:round;stroke-miterlimit:10;" d="
			M56.147,504.731c-1.325,9.94-1.988,57.654,3.976,66.931"/>
		
			<path id="XMLID_1745_" style="fill:none;stroke:#040000;stroke-width:9;stroke-linecap:round;stroke-linejoin:round;stroke-miterlimit:10;" d="
			M66.309,500.755c0,0,38.215-20.985,57.654-22.31"/>
		
			<path id="XMLID_1744_" style="fill:none;stroke:#040000;stroke-width:9;stroke-linecap:round;stroke-linejoin:round;stroke-miterlimit:10;" d="
			M87.515,471.155c0,0,17.364,51.383,31.367,65.385c5.743,5.743,7.068-2.651,7.068-2.651"/>
		
			<path id="XMLID_1743_" style="fill:none;stroke:#040000;stroke-width:9;stroke-linecap:round;stroke-linejoin:round;stroke-miterlimit:10;" d="
			M119.323,510.475c-4.418,2.209-17.229,26.507-17.229,26.507"/>
		
			<line id="XMLID_1742_" style="fill:none;stroke:#040000;stroke-width:9;stroke-linecap:round;stroke-linejoin:round;stroke-miterlimit:10;" x1="103.86" y1="462.319" x2="110.487" y2="463.203"/>
		
			<path id="XMLID_1741_" style="fill:none;stroke:#040000;stroke-width:9;stroke-linecap:round;stroke-linejoin:round;stroke-miterlimit:10;" d="
			M63.438,529.25c7.068-5.301,28.495-14.358,25.402,4.639c-3.889,23.888-18.996,21.206-22.09,18.997"/>
		
			<path id="XMLID_1740_" style="fill:none;stroke:#040000;stroke-width:9;stroke-linecap:round;stroke-linejoin:round;stroke-miterlimit:10;" d="
			M66.529,514.229c0,0,8.395-6.185,15.904-6.185"/>
		
			<path id="XMLID_1739_" style="fill:none;stroke:#040000;stroke-width:9;stroke-linecap:round;stroke-linejoin:round;stroke-miterlimit:10;" d="
			M77.956,567.36c0,0-4.517,36.128,3.011,45.664c7.526,9.533,24.588,6.522,38.136-16.059"/>
		
			<path id="XMLID_1738_" style="fill:none;stroke:#040000;stroke-width:9;stroke-linecap:round;stroke-linejoin:round;stroke-miterlimit:10;" d="
			M61.449,586.242c0,0-2.651,5.301-1.768,9.277"/>
		
			<path id="XMLID_1737_" style="fill:none;stroke:#040000;stroke-width:9;stroke-linecap:round;stroke-linejoin:round;stroke-miterlimit:10;" d="
			M97.676,561.722c0,0,4.418,12.812,3.977,20.323"/>
		
			<path id="XMLID_1736_" style="fill:none;stroke:#040000;stroke-width:9;stroke-linecap:round;stroke-linejoin:round;stroke-miterlimit:10;" d="
			M125.509,563.931c0,0,3.093,10.161,2.65,17.23"/>
	</g>
	<g id="XMLID_1747_" data-delay="1000" data-duration="10">
		
			<path id="XMLID_1735_" style="fill:none;stroke:#040000;stroke-width:9;stroke-linecap:round;stroke-linejoin:round;stroke-miterlimit:10;" d="
			M144.506,502.522c0,0,8.836,30.483,11.045,33.134"/>
		
			<path id="XMLID_1734_" style="fill:none;stroke:#040000;stroke-width:9;stroke-linecap:round;stroke-linejoin:round;stroke-miterlimit:10;" d="
			M155.551,503.406c0,0,20.322-8.394,35.784-10.603c15.463-2.209,29.821,3.093,20.985,31.809"/>
		
			<line id="XMLID_1733_" style="fill:none;stroke:#040000;stroke-width:9;stroke-linecap:round;stroke-linejoin:round;stroke-miterlimit:10;" x1="158.864" y1="468.946" x2="166.153" y2="487.501"/>
		
			<line id="XMLID_1732_" style="fill:none;stroke:#040000;stroke-width:9;stroke-linecap:round;stroke-linejoin:round;stroke-miterlimit:10;" x1="179" y1="465.948" x2="179" y2="480.948"/>
		
			<line id="XMLID_1731_" style="fill:none;stroke:#040000;stroke-width:9;stroke-linecap:round;stroke-linejoin:round;stroke-miterlimit:10;" x1="205.252" y1="463.645" x2="197.3" y2="480.875"/>
		
			<path id="XMLID_1730_" style="fill:none;stroke:#040000;stroke-width:9;stroke-linecap:round;stroke-linejoin:round;stroke-miterlimit:10;" d="
			M168.804,543.167c-4.639-19.88-4.97-23.194,9.94-26.507c13.194-2.932,25.845-4.639,18.556,25.182"/>
		
			<path id="XMLID_1729_" style="fill:none;stroke:#040000;stroke-width:9;stroke-linecap:round;stroke-linejoin:round;stroke-miterlimit:10;" d="
			M176.756,550.236c0,0-4.859,20.323-8.836,27.391"/>
		
			<path id="XMLID_1728_" style="fill:none;stroke:#040000;stroke-width:9;stroke-linecap:round;stroke-linejoin:round;stroke-miterlimit:10;" d="
			M182.5,537.866c0,0,1.767,19.88,3.313,29.158c1.524,9.151,5.301,11.707,18.334,7.953c13.69-3.945,18.918-4.602,14.138-12.15"/>
	</g>
	
	<g id="XMLID_1748_" data-delay="200" data-duration="10">
		
			<path id="XMLID_1727_" style="fill:none;stroke:#040000;stroke-width:9;stroke-linecap:round;stroke-linejoin:round;stroke-miterlimit:10;" d="
			M237.724,506.94c0,0,5.743,29.6,4.418,49.039"/>
		
			<path id="XMLID_1726_" style="fill:none;stroke:#040000;stroke-width:9;stroke-linecap:round;stroke-linejoin:round;stroke-miterlimit:10;" d="
			M245.676,502.522c3.977-4.86,16.566-9.72,17.893,0c1.325,9.719,2.43,24.298,1.325,46.388"/>
		
			<line id="XMLID_1725_" style="fill:none;stroke:#040000;stroke-width:9;stroke-linecap:round;stroke-linejoin:round;stroke-miterlimit:10;" x1="249.431" y1="515.334" x2="255.174" y2="516.66"/>
		
			<line id="XMLID_1724_" style="fill:none;stroke:#040000;stroke-width:9;stroke-linecap:round;stroke-linejoin:round;stroke-miterlimit:10;" x1="249.652" y1="533.889" x2="257.383" y2="529.913"/>
		
			<path id="XMLID_1723_" style="fill:none;stroke:#040000;stroke-width:9;stroke-linecap:round;stroke-linejoin:round;stroke-miterlimit:10;" d="
			M284.995,492.803c0,0,10.603-7.51,27.391-10.603"/>
		
			<path id="XMLID_1722_" style="fill:none;stroke:#040000;stroke-width:9;stroke-linecap:round;stroke-linejoin:round;stroke-miterlimit:10;" d="
			M277.705,509.149c0,0-1.104,18.997,0.221,29.158c1.326,10.161,1.547,12.812,14.359,11.045c12.812-1.767,20.984-1.767,24.077-4.86
			c3.093-3.092,0.884-6.626,0.884-6.626"/>
		
			<path id="XMLID_1721_" style="fill:none;stroke:#040000;stroke-width:9;stroke-linecap:round;stroke-linejoin:round;stroke-miterlimit:10;" d="
			M309.735,506.94c0,0-20.765,20.764-22.974,28.717"/>
		
			<path id="XMLID_1720_" style="fill:none;stroke:#040000;stroke-width:9;stroke-linecap:round;stroke-linejoin:round;stroke-miterlimit:10;" d="
			M287.646,513.567c0,0,10.161,11.487,15.021,17.672"/>
	</g>

	<g id="XMLID_1749_" data-delay="300" data-duration="10">
		
			<path id="XMLID_1716_" style="fill:none;stroke:#040000;stroke-width:9;stroke-linecap:round;stroke-linejoin:round;stroke-miterlimit:10;" d="
			M327.849,497.663c0,0,6.186-12.37,14.138-18.997"/>
		
			<line id="XMLID_1710_" style="fill:none;stroke:#040000;stroke-width:9;stroke-linecap:round;stroke-linejoin:round;stroke-miterlimit:10;" x1="353.914" y1="486.397" x2="370.481" y2="483.967"/>
		
			<path id="XMLID_1709_" style="fill:none;stroke:#040000;stroke-width:9;stroke-linecap:round;stroke-linejoin:round;stroke-miterlimit:10;" d="
			M337.568,493.687c0,0-0.884,13.695,1.767,20.322"/>
		
			<path id="XMLID_1708_" style="fill:none;stroke:#040000;stroke-width:9;stroke-linecap:round;stroke-linejoin:round;stroke-miterlimit:10;" d="
			M360.762,475.131c0,0-2.209,32.25,0.884,36.668s6.627-1.325,6.627-1.325"/>
		
			<line id="XMLID_1707_" style="fill:none;stroke:#040000;stroke-width:9;stroke-linecap:round;stroke-linejoin:round;stroke-miterlimit:10;" x1="370.923" y1="471.155" x2="374.457" y2="475.131"/>
		
			<line id="XMLID_1706_" style="fill:none;stroke:#040000;stroke-width:9;stroke-linecap:round;stroke-linejoin:round;stroke-miterlimit:10;" x1="351.043" y1="514.229" x2="350.159" y2="517.322"/>
		
			<path id="XMLID_1705_" style="fill:none;stroke:#040000;stroke-width:9;stroke-linecap:round;stroke-linejoin:round;stroke-miterlimit:10;" d="
			M334.697,528.809c0,0,22.089-5.743,29.6-5.301"/>
		
			<path id="XMLID_1704_" style="fill:none;stroke:#040000;stroke-width:9;stroke-linecap:round;stroke-linejoin:round;stroke-miterlimit:10;" d="
			M343.975,530.576c0,0-6.186,19.88-1.768,26.507s6.185-0.884,6.185-0.884"/>
		
			<path id="XMLID_1703_" style="fill:none;stroke:#040000;stroke-width:9;stroke-linecap:round;stroke-linejoin:round;stroke-miterlimit:10;" d="
			M353.914,531.018c0,0,9.72,30.926,30.926,34.46"/>
		
			<line id="XMLID_1702_" style="fill:none;stroke:#040000;stroke-width:9;stroke-linecap:round;stroke-linejoin:round;stroke-miterlimit:10;" x1="381.747" y1="544.271" x2="376.445" y2="551.34"/>
		
			<path id="XMLID_1701_" style="fill:none;stroke:#040000;stroke-width:9;stroke-linecap:round;stroke-linejoin:round;stroke-miterlimit:10;" d="
			M345.741,531.018c0,0-12.812,11.045-18.997,15.463"/>
	</g>
	
	<path id="XMLID_1717_" data-delay="1000" data-duration="10" style="fill:none;stroke:#040000;stroke-width:9;stroke-linecap:round;stroke-linejoin:round;stroke-miterlimit:10;" d="
	M330.5,382.576c-1.326-8.836-8.395-19.881-15.904-22.532c-7.511-2.65-25.183-0.883-20.765,8.394
	c4.418,9.278,17.229,12.812,17.229,12.812"/>

	<path id="XMLID_1718_" data-delay="1000" data-duration="10" style="fill:none;stroke:#040000;stroke-width:9;stroke-linecap:round;stroke-linejoin:round;stroke-miterlimit:10;" d="
	M342.207,400.689c0,0,6.185,11.928,18.113,11.928s26.065-10.603,16.347-19.438c-7.526-6.842-22.311-0.442-22.311-0.442"/>

	<path id="XMLID_1719_" data-delay="1000" data-duration="10" style="fill:none;stroke:#040000;stroke-width:9;stroke-linecap:round;stroke-linejoin:round;stroke-miterlimit:10;" d="
	M293.609,475.352c-0.441-6.185-9.719-51.689,38.878-80.848"/>
	

	<g id="XMLID_1750_">
		
			<line id="XMLID_1700_" style="fill:none;stroke:#040000;stroke-width:9;stroke-linecap:round;stroke-linejoin:round;stroke-miterlimit:10;" x1="410.464" y1="470.934" x2="411.568" y2="479.77"/>
		
			<path id="XMLID_1699_" style="fill:none;stroke:#040000;stroke-width:9;stroke-linecap:round;stroke-linejoin:round;stroke-miterlimit:10;" d="
			M399.64,487.28c7.068,1.768,20.985,6.185,11.266,13.696c-9.72,7.51-22.531,13.253-22.531,13.253"/>
		
			<line id="XMLID_1698_" style="fill:none;stroke:#040000;stroke-width:9;stroke-linecap:round;stroke-linejoin:round;stroke-miterlimit:10;" x1="394.117" y1="542.504" x2="402.512" y2="516.438"/>
		
			<path id="XMLID_1697_" style="fill:none;stroke:#040000;stroke-width:9;stroke-linecap:round;stroke-linejoin:round;stroke-miterlimit:10;" d="
			M430.123,495.454c0,0,12.37,1.767,18.997,3.092c6.627,1.326,15.021,5.302-1.325,15.905"/>
		
			<path id="XMLID_1696_" style="fill:none;stroke:#040000;stroke-width:9;stroke-linecap:round;stroke-linejoin:round;stroke-miterlimit:10;" d="
			M424.38,505.173c0,0-9.94,31.367-14.8,40.203"/>
		
			<path id="XMLID_1695_" style="fill:none;stroke:#040000;stroke-width:9;stroke-linecap:round;stroke-linejoin:round;stroke-miterlimit:10;" d="
			M428.355,525.937c7.512,3.093,21.207,4.418,11.93,14.579c-9.278,10.161-22.09,15.905-22.09,15.905"/>
		
			<path id="XMLID_1694_" style="fill:none;stroke:#040000;stroke-width:9;stroke-linecap:round;stroke-linejoin:round;stroke-miterlimit:10;" d="
			M425.705,538.749c0,0,5.965,19.218,9.499,24.961"/>
		
			<path id="XMLID_1693_" style="fill:none;stroke:#040000;stroke-width:9;stroke-linecap:round;stroke-linejoin:round;stroke-miterlimit:10;" d="
			M448.457,475.794c0,0-10.382,30.263-12.59,38.215"/>
		
			<line id="XMLID_1692_" style="fill:none;stroke:#040000;stroke-width:9;stroke-linecap:round;stroke-linejoin:round;stroke-miterlimit:10;" x1="407.371" y1="504.068" x2="412.23" y2="508.928"/>
		
			<line id="XMLID_1691_" style="fill:none;stroke:#040000;stroke-width:9;stroke-linecap:round;stroke-linejoin:round;stroke-miterlimit:10;" x1="409.139" y1="522.182" x2="403.396" y2="512.021"/>
	</g>

	<g id="XMLID_1751_">
		
			<line id="XMLID_1690_" style="fill:none;stroke:#040000;stroke-width:9;stroke-linecap:round;stroke-linejoin:round;stroke-miterlimit:10;" x1="469.222" y1="513.125" x2="488.66" y2="516.218"/>
		
			<line id="XMLID_1689_" style="fill:none;stroke:#040000;stroke-width:9;stroke-linecap:round;stroke-linejoin:round;stroke-miterlimit:10;" x1="456.852" y1="540.516" x2="477.396" y2="536.54"/>
		
			<path id="XMLID_1688_" style="fill:none;stroke:#040000;stroke-width:9;stroke-linecap:round;stroke-linejoin:round;stroke-miterlimit:10;" d="
			M482.033,500.755c0,0-16.346,50.144-25.182,61.63"/>
		
			<path id="XMLID_1687_" style="fill:none;stroke:#040000;stroke-width:9;stroke-linecap:round;stroke-linejoin:round;stroke-miterlimit:10;" d="
			M515.168,508.708l-14.137,9.277c0,0,14.578,3.534,18.112,7.51c3.534,3.977,11.929,12.371,1.768,29.6
			c-10.161,17.23-19.491,27.598-22.31,27.833c-5.302,0.442-7.291-4.418-7.291-4.418"/>
		
			<polyline id="XMLID_1686_" style="fill:none;stroke:#040000;stroke-width:9;stroke-linecap:round;stroke-linejoin:round;stroke-miterlimit:10;" points="
			499.705,530.355 487.335,539.633 508.1,540.074 		"/>
		
			<line id="XMLID_1685_" style="fill:none;stroke:#040000;stroke-width:9;stroke-linecap:round;stroke-linejoin:round;stroke-miterlimit:10;" x1="487.777" y1="552.003" x2="502.135" y2="553.77"/>
		
			<line id="XMLID_1684_" style="fill:none;stroke:#040000;stroke-width:9;stroke-linecap:round;stroke-linejoin:round;stroke-miterlimit:10;" x1="499.705" y1="542.725" x2="490.869" y2="559.734"/>
		
			<path id="XMLID_1683_" style="fill:none;stroke:#040000;stroke-width:9;stroke-linecap:round;stroke-linejoin:round;stroke-miterlimit:10;" d="
			M478.058,554.433c-3.534,5.743-8.836,16.126,20.322,13.475"/>
	</g>
	
	<g id="XMLID_1752_">
		
			<path id="XMLID_1682_" style="fill:none;stroke:#040000;stroke-width:9;stroke-linecap:round;stroke-linejoin:round;stroke-miterlimit:10;" d="
			M543.664,529.25c-2.354,3.66-6.477,6.033,0.441,7.731c1.268,0.312,10.494,1.318,33.797,6.627
			c9.477,2.159,11.045,6.627,3.093,13.695"/>
		
			<line id="XMLID_1681_" style="fill:none;stroke:#040000;stroke-width:9;stroke-linecap:round;stroke-linejoin:round;stroke-miterlimit:10;" x1="563.766" y1="526.158" x2="567.521" y2="532.785"/>
		
			<line id="XMLID_1680_" style="fill:none;stroke:#040000;stroke-width:9;stroke-linecap:round;stroke-linejoin:round;stroke-miterlimit:10;" x1="543.664" y1="551.34" x2="534.387" y2="557.083"/>
		
			<path id="XMLID_1679_" style="fill:none;stroke:#040000;stroke-width:9;stroke-linecap:round;stroke-linejoin:round;stroke-miterlimit:10;" d="
			M561.998,551.34c3.534,1.767,8.836,5.301,11.486,12.37"/>
		
			<path id="XMLID_1678_" style="fill:none;stroke:#040000;stroke-width:9;stroke-linecap:round;stroke-linejoin:round;stroke-miterlimit:10;" d="
			M541.013,565.919c1.325,0,20.543,1.104,21.869,7.731c1.325,6.627-19.218,14.801-19.218,14.801"/>
		
			<path id="XMLID_1677_" style="fill:none;stroke:#040000;stroke-width:9;stroke-linecap:round;stroke-linejoin:round;stroke-miterlimit:10;" d="
			M524.888,590.438c0,0,25.182,6.848,34.901,13.475"/>
	</g>
	
	

	
	
</g>
<g id="down">
	
		<path id="XMLID_1755_" style="fill:none;stroke:#040000;stroke-width:9;stroke-linecap:round;stroke-linejoin:round;stroke-miterlimit:10;" d="
		M99.5,648.948c54-29,202-86,398-50"/>
	
		<path id="XMLID_1756_" style="fill:none;stroke:#040000;stroke-width:9;stroke-linecap:round;stroke-linejoin:round;stroke-miterlimit:10;" d="
		M77.5,690.948c0,0,27.667-25.833,66.833-40"/>
	<g id="XMLID_1646_">
		
			<path id="XMLID_1676_" style="fill:none;stroke:#040000;stroke-width:9;stroke-linecap:round;stroke-linejoin:round;stroke-miterlimit:10;" d="
			M203.52,632.062c9.188,17.61,12.227,63.428,14.531,74.186"/>
		
			<line id="XMLID_1655_" style="fill:none;stroke:#040000;stroke-width:9;stroke-linecap:round;stroke-linejoin:round;stroke-miterlimit:10;" x1="198.932" y1="673.361" x2="196.637" y2="680.244"/>
		
			<line id="XMLID_1654_" style="fill:none;stroke:#040000;stroke-width:9;stroke-linecap:round;stroke-linejoin:round;stroke-miterlimit:10;" x1="221.875" y1="661.125" x2="226.464" y2="670.302"/>
		
			<path id="XMLID_1653_" style="fill:none;stroke:#040000;stroke-width:9;stroke-linecap:round;stroke-linejoin:round;stroke-miterlimit:10;" d="
			M232.582,654.857c0,0,20.691-17.242,30.175-12.932c8.348,3.794,2.587,14.656-4.31,19.829
			c-6.897,5.173-18.968,12.069-18.968,12.069s18.968-6.896,31.037-5.172"/>
		
			<path id="XMLID_1652_" style="fill:none;stroke:#040000;stroke-width:9;stroke-linecap:round;stroke-linejoin:round;stroke-miterlimit:10;" d="
			M252.31,632.062c-3.448,10.92-9.961,48.084-7.087,64.752"/>
		
			<line id="XMLID_1651_" style="fill:none;stroke:#040000;stroke-width:9;stroke-linecap:round;stroke-linejoin:round;stroke-miterlimit:10;" x1="261.316" y1="686.09" x2="271.087" y2="694.711"/>
	</g>

	<g id="XMLID_1632_">
		
			<path id="XMLID_1645_" style="fill:none;stroke:#040000;stroke-width:9;stroke-linecap:round;stroke-linejoin:round;stroke-miterlimit:10;" d="
			M286.912,631.367c0,0,28.27-9.927,40.785-9.495"/>
		
			<path id="XMLID_1644_" style="fill:none;stroke:#040000;stroke-width:9;stroke-linecap:round;stroke-linejoin:round;stroke-miterlimit:10;" d="
			M289.717,643.884c1.727,1.726,4.101,2.374,6.689,3.669"/>
		
			<path id="XMLID_1643_" style="fill:none;stroke:#040000;stroke-width:9;stroke-linecap:round;stroke-linejoin:round;stroke-miterlimit:10;" d="
			M329.424,635.684c0,0-3.669,5.826-6.258,8.416"/>
		
			<path id="XMLID_1642_" style="fill:none;stroke:#040000;stroke-width:9;stroke-linecap:round;stroke-linejoin:round;stroke-miterlimit:10;" d="
			M283.891,669.348c0,0,44.238-10.79,49.85-10.79c5.61,0,7.121-2.806,7.121-2.806"/>
		
			<path id="XMLID_1636_" style="fill:none;stroke:#040000;stroke-width:9;stroke-linecap:round;stroke-linejoin:round;stroke-miterlimit:10;" d="
			M308.06,612.809c0,0,7.338,71.645,9.063,84.161"/>
		
			<line id="XMLID_1635_" style="fill:none;stroke:#040000;stroke-width:9;stroke-linecap:round;stroke-linejoin:round;stroke-miterlimit:10;" x1="299.428" y1="679.706" x2="295.76" y2="686.18"/>
		
			<line id="XMLID_1634_" style="fill:none;stroke:#040000;stroke-width:9;stroke-linecap:round;stroke-linejoin:round;stroke-miterlimit:10;" x1="330.503" y1="674.742" x2="341.725" y2="680.354"/>
	</g>
	<g id="XMLID_1588_">
		
			<line id="XMLID_1626_" style="fill:none;stroke:#040000;stroke-width:9;stroke-linecap:round;stroke-linejoin:round;stroke-miterlimit:10;" x1="358.774" y1="623.854" x2="364.738" y2="632.469"/>
		
			<path id="XMLID_1625_" style="fill:none;stroke:#040000;stroke-width:9;stroke-linecap:round;stroke-linejoin:round;stroke-miterlimit:10;" d="
			M353.693,639.316c0,0,7.511,9.277,10.161,13.695c2.651,4.418-8.394,12.812-8.836,18.555c-0.441,5.744,12.812,18.998,12.812,18.998
			"/>
		
			<line id="XMLID_1624_" style="fill:none;stroke:#040000;stroke-width:9;stroke-linecap:round;stroke-linejoin:round;stroke-miterlimit:10;" x1="374.016" y1="626.504" x2="414.439" y2="617.006"/>
		
			<line id="XMLID_1623_" style="fill:none;stroke:#040000;stroke-width:9;stroke-linecap:round;stroke-linejoin:round;stroke-miterlimit:10;" x1="380.643" y1="615.459" x2="385.502" y2="628.492"/>
		
			<line id="XMLID_1622_" style="fill:none;stroke:#040000;stroke-width:9;stroke-linecap:round;stroke-linejoin:round;stroke-miterlimit:10;" x1="401.849" y1="608.832" x2="401.628" y2="622.307"/>
		
			<path id="XMLID_1620_" style="fill:none;stroke:#040000;stroke-width:9;stroke-linecap:round;stroke-linejoin:round;stroke-miterlimit:10;" d="
			M379.317,636.224c-2.65,3.093-5.743,7.952-1.767,11.045c3.976,3.093,14.578,4.196,15.462-1.546
			c0.884-5.744-5.522-7.511-5.522-7.511"/>
		
			<path id="XMLID_1619_" style="fill:none;stroke:#040000;stroke-width:9;stroke-linecap:round;stroke-linejoin:round;stroke-miterlimit:10;" d="
			M402.29,631.363c0,0-3.092,3.535-2.65,7.512c0.442,3.976,3.534,6.185,9.278,6.185c5.742,0,9.719-3.534,9.719-7.952
			s-8.615-5.302-8.615-5.302"/>
		
			<line id="XMLID_1618_" style="fill:none;stroke:#040000;stroke-width:9;stroke-linecap:round;stroke-linejoin:round;stroke-miterlimit:10;" x1="382.41" y1="657.871" x2="371.586" y2="666.928"/>
		
			<path id="XMLID_1617_" style="fill:none;stroke:#040000;stroke-width:9;stroke-linecap:round;stroke-linejoin:round;stroke-miterlimit:10;" d="
			M377.551,665.603c0,0,0.662,18.556,4.196,23.856"/>
		
			<polyline id="XMLID_1616_" style="fill:none;stroke:#040000;stroke-width:9;stroke-linecap:round;stroke-linejoin:round;stroke-miterlimit:10;" points="
			401.407,652.57 405.824,656.104 405.383,687.472 		"/>
		
			<path id="XMLID_1592_" style="fill:none;stroke:#040000;stroke-width:9;stroke-linecap:round;stroke-linejoin:round;stroke-miterlimit:10;" d="
			M389.479,661.406c0,0,24.299-5.965,30.926-5.081"/>
		
			<path id="XMLID_1591_" style="fill:none;stroke:#040000;stroke-width:9;stroke-linecap:round;stroke-linejoin:round;stroke-miterlimit:10;" d="
			M392.129,670.684c10.604-2.209,19.137-1.768,24.52-1.768"/>
		
			<line id="XMLID_1590_" style="fill:none;stroke:#040000;stroke-width:9;stroke-linecap:round;stroke-linejoin:round;stroke-miterlimit:10;" x1="391.688" y1="679.961" x2="415.986" y2="679.299"/>
		
			<line id="XMLID_1589_" style="fill:none;stroke:#040000;stroke-width:9;stroke-linecap:round;stroke-linejoin:round;stroke-miterlimit:10;" x1="391.688" y1="689.238" x2="419.963" y2="689.459"/>
	</g>
	<g id="XMLID_1558_">
		
			<line id="XMLID_1579_" style="fill:none;stroke:#040000;stroke-width:9;stroke-linecap:round;stroke-linejoin:round;stroke-miterlimit:10;" x1="438.518" y1="626.504" x2="449.12" y2="633.131"/>
		
			<path id="XMLID_1578_" style="fill:none;stroke:#040000;stroke-width:9;stroke-linecap:round;stroke-linejoin:round;stroke-miterlimit:10;" d="
			M437.634,645.943c0,0,8.836,3.976,9.72,11.486c0.883,7.51-8.395,14.579-9.278,19.438c-0.883,4.86,5.302,15.021,5.302,15.021"/>
		
			<path id="XMLID_1574_" style="fill:none;stroke:#040000;stroke-width:9;stroke-linecap:round;stroke-linejoin:round;stroke-miterlimit:10;" d="
			M465.908,635.34c0,0,25.402-0.662,33.797,1.547"/>
		
			<line id="XMLID_1573_" style="fill:none;stroke:#040000;stroke-width:9;stroke-linecap:round;stroke-linejoin:round;stroke-miterlimit:10;" x1="470.326" y1="623.854" x2="472.535" y2="642.408"/>
		
			<line id="XMLID_1572_" style="fill:none;stroke:#040000;stroke-width:9;stroke-linecap:round;stroke-linejoin:round;stroke-miterlimit:10;" x1="494.184" y1="625.179" x2="488.882" y2="642.408"/>
		
			<path id="XMLID_1569_" style="fill:none;stroke:#040000;stroke-width:9;stroke-linecap:round;stroke-linejoin:round;stroke-miterlimit:10;" d="
			M463.258,651.244c0,0,26.508-1.325,35.344,0"/>
		
			<path id="XMLID_1568_" style="fill:none;stroke:#040000;stroke-width:9;stroke-linecap:round;stroke-linejoin:round;stroke-miterlimit:10;" d="
			M458.177,662.952c0,0-1.767,21.206,1.768,26.065"/>
		
			<path id="XMLID_1567_" style="fill:none;stroke:#040000;stroke-width:9;stroke-linecap:round;stroke-linejoin:round;stroke-miterlimit:10;" d="
			M467.676,663.615c0,0,12.389-0.57,25.182,1.324c11.929,1.768,6.186,18.777-1.325,29.38"/>
		
			<line id="XMLID_1566_" style="fill:none;stroke:#040000;stroke-width:9;stroke-linecap:round;stroke-linejoin:round;stroke-miterlimit:10;" x1="475.628" y1="656.546" x2="463.699" y2="679.52"/>
		
			<line id="XMLID_1565_" style="fill:none;stroke:#040000;stroke-width:9;stroke-linecap:round;stroke-linejoin:round;stroke-miterlimit:10;" x1="473.86" y1="677.752" x2="467.676" y2="672.009"/>
		
			<line id="XMLID_1560_" style="fill:none;stroke:#040000;stroke-width:9;stroke-linecap:round;stroke-linejoin:round;stroke-miterlimit:10;" x1="493.3" y1="660.964" x2="481.812" y2="680.402"/>
		
			<line id="XMLID_1559_" style="fill:none;stroke:#040000;stroke-width:9;stroke-linecap:round;stroke-linejoin:round;stroke-miterlimit:10;" x1="492.416" y1="679.299" x2="486.673" y2="673.775"/>
	</g>
	
</g>
<g id="caojun">
	<path id="XMLID_1754_" style="fill:#040000;" d="M254.489,733.906c-10.152,3.867-17.696,18.916-11.594,29.289
		s6.103,20.137,22.577,20.747c16.476,0.61,89.032-7.323,118.379-7.323c34.781,0,38.522-24.453,39.053-27.459
		c1.831-10.373-10.373-25.018-21.357-26.848c-10.982-1.831-80.546-0.611-98.852,2.44
		C284.389,727.804,267.304,729.024,254.489,733.906z"/>
	<g id="XMLID_2541_">
		<path id="XMLID_2542_" style="fill:#FFFFFF;" d="M258.612,767.31l-3.143-0.851c1.632-5.479,3.039-10.889,4.224-16.23
			c-1.371,0.08-2.629,0.152-3.77,0.217l-0.006-3.094c1.727,0.132,3.445,0.146,5.159,0.048c-0.052-0.913-0.193-2.337-0.417-4.273
			c-0.105-1.826-0.242-3.194-0.408-4.103l3.427-0.197c0.049,2.863,0.156,5.723,0.32,8.577c0.344-0.021,0.914-0.053,1.714-0.099
			c0.92,0.062,1.609,0.078,2.066,0.053l-0.175,2.933c-0.35-0.093-0.926-0.118-1.724-0.073c-0.807-0.066-1.439-0.089-1.894-0.062
			l0.325,5.654c1.548,1.057,3.211,2.049,4.984,2.979l-1.909,2.688c-0.847-0.751-1.745-1.446-2.698-2.079
			c0.099,1.713,0.3,4.225,0.605,7.528c0.178,3.085,0.312,5.425,0.404,7.025l-3.074,0.349c-0.134-6.294-0.502-12.691-1.104-19.189
			c-0.271,1.277-0.729,3.308-1.369,6.096C259.504,763.879,258.989,765.912,258.612,767.31z M271.19,743.895l2.296,1.072
			c0.563-0.146,1.074-0.234,1.532-0.261c-0.039-0.686-0.078-1.37-0.118-2.056c-2.057,0.118-4.108,0.295-6.158,0.525l-0.177-3.084
			c0.57-0.032,1.541-0.088,2.912-0.167c1.489,0.03,2.58,0.023,3.266-0.016c-0.06-1.028-0.177-2.054-0.35-3.075l3.085-0.178
			c0.06,1.029,0.122,2.115,0.188,3.256c0.797-0.046,1.713-0.099,2.741-0.158c-0.026-0.454-0.06-1.027-0.099-1.713
			c-0.162-0.791-0.251-1.36-0.271-1.703l2.912-0.168c0.065,1.144,0.132,2.287,0.197,3.427c2.057-0.118,4.112-0.236,6.169-0.354
			l-0.166,3.104c-1.956-0.115-3.961-0.115-6.016,0.003c0.033,0.572,0.06,1.027,0.079,1.37c5.031-0.174,7.561,1.973,7.59,6.439
			c0.46,6.05-3.937,9.281-13.193,9.698c-6.044,0.579-9.025-1.484-8.952-6.189C268.429,749.67,269.271,746.412,271.19,743.895z
			 M271.623,760.373l3,1.374c2.36-0.823,4.966-1.317,7.823-1.481c5.14-0.295,7.82,1.5,8.044,5.383
			c-0.06,4.929-3.51,7.706-10.35,8.33c-6.854,0.395-10.411-1.695-10.674-6.262C269.348,765.66,270.066,763.213,271.623,760.373z
			 M275.729,757.042c-0.079-1.37-0.154-2.682-0.227-3.94l-3.77,0.217l0.029,0.514C271.771,756.01,273.093,757.081,275.729,757.042z
			 M275.334,750.188l-0.147-2.569c-0.23,0.014-0.683,0.098-1.361,0.25c-0.565,0.148-1.014,0.289-1.352,0.422
			c-0.075,0.691-0.213,1.274-0.415,1.742c0.343-0.02,0.918,0.006,1.724,0.072C274.468,750.066,274.985,750.096,275.334,750.188z
			 M284.304,765.66l-0.177,2.932c-3.668-0.017-7.386,0.082-11.156,0.299c0.784,1.674,3.004,2.406,6.66,2.195
			c5.238-0.533,7.896-2.174,7.967-4.928c-0.348-2.043-1.894-3.042-4.641-2.999c-2.972,0.171-6.254,0.875-9.85,2.113
			c0.007,0.115-0.049,0.175-0.162,0.181c-0.108,0.122-0.151,0.354-0.132,0.695C276.703,766.041,280.534,765.877,284.304,765.66z
			 M280.555,742.324c-0.916,0.053-1.886,0.109-2.913,0.168c0.033,0.573,0.066,1.144,0.099,1.714l2.903-0.339L280.555,742.324z
			 M281.008,750.206c-0.071-1.255-0.138-2.398-0.196-3.427c-0.343,0.02-0.801,0.047-1.371,0.079c-0.68,0.154-1.189,0.24-1.532,0.26
			c0.059,1.028,0.118,2.057,0.177,3.084C279.112,750.143,280.086,750.146,281.008,750.206z M281.201,756.556
			c-0.065-1.141-0.132-2.283-0.197-3.427c-0.229,0.014-0.629,0.037-1.199,0.069c-0.692-0.073-1.209-0.103-1.552-0.083
			c0.02,0.343,0.112,0.969,0.28,1.875c0.046,0.8,0.082,1.43,0.108,1.885C279.554,756.822,280.408,756.717,281.201,756.556z
			 M285.644,750.111l0.006,3.094c-0.69-0.072-1.323-0.096-1.894-0.062l0.158,2.741c2.694-0.955,3.908-2.744,3.645-5.367
			c-0.046-2.747-1.437-4.042-4.177-3.885l0.196,3.427C284.27,750.135,284.959,750.15,285.644,750.111z"/>
		<path id="XMLID_2568_" style="fill:#FFFFFF;" d="M300.016,753.754l-0.188-3.256c0.228-0.012,0.518,0.03,0.866,0.123
			c1.27,0.158,2.188,0.218,2.761,0.185c0.094-0.349,0.295-0.876,0.598-1.581c0.188-0.699,0.329-1.223,0.425-1.572
			c-1.937,0.227-4.496,0.547-7.681,0.958c-1.021,0.175-1.763,0.272-2.217,0.3l-0.35-3.074c2.956-0.398,6.601-0.78,10.937-1.145
			c0.092-0.35,0.234-0.873,0.425-1.572c0.277-1.16,0.513-2.033,0.709-2.619c-1.814,0.336-4.128,0.984-6.936,1.945l-0.844-2.701
			c3.697-1.473,9.135-2.588,16.312-3.345c5.925-0.569,8.963,1.435,9.112,6.009c1.812-0.333,3.403-0.598,4.768-0.791l0.178,3.084
			c-0.452,0.143-1.249,0.244-2.389,0.309c-1.022,0.175-1.819,0.277-2.39,0.311c0.092,5.611-3.866,8.532-11.872,8.762
			c-1.943,0.112-4.062,0.121-6.36,0.022c-2.241,6.893-4.222,12.276-5.946,16.157l-3.153-1.021c1.946-4.008,3.888-9.104,5.825-15.291
			C301.577,754.008,300.715,753.945,300.016,753.754z M306.602,757.673l2.447,0.72c4.054-1.266,7.049-1.953,8.992-2.065
			c5.253-0.302,8.004,1.662,8.246,5.886c0.296,5.141-3.898,7.96-12.578,8.459c-6.055,0.349-9.148-1.651-9.283-5.998
			C304.374,761.814,305.099,759.479,306.602,757.673z M320.524,745.698c-1.259,0.072-3.249,0.302-5.978,0.688
			c-2.965,0.286-5.126,0.526-6.49,0.718c-0.096,0.35-0.287,0.992-0.577,1.924c-0.184,0.813-0.376,1.456-0.577,1.924
			c2.062-0.003,3.893-0.052,5.493-0.144C317.542,750.627,320.251,748.924,320.524,745.698z M318.229,759.582
			c-3.308,0.307-6.53,1.064-9.667,2.275c-0.284,1.049-0.396,2.086-0.338,3.114c0.018,2.293,1.794,3.278,5.328,2.96
			c6.047-0.461,9.099-2.184,9.158-5.169C322.684,760.357,321.191,759.299,318.229,759.582z M308.926,744.303
			c1.25-0.185,3.181-0.468,5.796-0.85c2.62-0.263,4.555-0.49,5.807-0.678c-0.273-2.734-2.062-3.947-5.367-3.645
			c-0.915,0.053-2.622,0.266-5.12,0.639C309.777,741.16,309.404,742.672,308.926,744.303z"/>
		<path id="XMLID_2574_" style="fill:#FFFFFF;" d="M338.541,768.041l-3.427,0.197c-0.4-6.967-0.696-12.106-0.887-15.42
			c-0.224-3.883-0.456-6.906-0.693-9.072l3.255-0.187c0.046,0.801,0.099,1.714,0.157,2.741c3.401-2.603,5.273-4.944,5.612-7.027
			c-0.032-0.57-0.45-0.833-1.248-0.787c-1.485,0.086-4.133,0.926-7.935,2.52l-1.559-3.177c3.81-1.479,6.916-2.289,9.315-2.427
			c3.196-0.184,4.866,0.923,5.004,3.322c0.132,2.285-1.496,4.898-4.878,7.844c2.906,0.752,4.64,1.968,5.196,3.655
			c2.991-1.776,5.483-3.295,7.474-4.556c-0.472-0.201-1.229-0.445-2.277-0.729c-0.699-0.188-1.223-0.33-1.57-0.426l1.203-2.991
			c1.752,0.587,3.624,1.282,5.619,2.083c2.407-1.971,3.583-3.473,3.523-4.5c-0.039-0.686-0.632-0.995-1.772-0.93
			c-1.144,0.066-2.767,0.734-4.87,1.999l-1.348-2.501c-0.103,0.236-0.312,0.534-0.637,0.896c-0.954,1.317-2.127,2.873-3.512,4.672
			l-2.517-1.918c2.676-3.248,5.122-6.597,7.33-10.049l2.697,2.08c-0.741,1.074-1.595,2.154-2.564,3.241
			c1.896-0.909,3.757-1.419,5.585-1.524c3.312-0.19,5.102,1.025,5.368,3.645c0.105,1.829-1.154,3.849-3.777,6.062
			c1.288,0.5,3.334,1.184,6.134,2.055c1.51,0.371,2.676,0.705,3.496,1.001l-1.364,3.173c-4.225-1.704-7.911-3.039-11.062-4.005
			c-2.092,1.495-4.912,3.265-8.461,5.3c1.269,0.158,3.11,0.28,5.521,0.37c0.229-0.013,0.398-0.022,0.515-0.03l-0.197-3.426
			l3.256-0.188c-0.037,1.377-0.021,2.639,0.045,3.779c2.188,0.218,4.373,0.323,6.551,0.311l-0.347,2.942
			c-0.115,0.007-0.287,0.017-0.515,0.03c-1.607-0.021-3.446-0.146-5.521-0.371c0.125,2.172,0.302,4.281,0.536,6.33
			c0.111-0.006,0.28-0.072,0.504-0.201c2.821-0.734,4.787-1.42,5.898-2.059l1.033,3.035c-1.446,0.771-3.861,1.598-7.248,2.48
			c0.02,0.342,0.114,1.023,0.288,2.046c0.053,0.913,0.092,1.599,0.118,2.056l-3.426,0.197l-0.217-3.77
			c-0.679,0.154-1.306,0.247-1.876,0.279c-4.232,0.131-6.589-0.996-7.069-3.374c0.021-1.605,0.884-3.546,2.587-5.821l2.859,1.898
			c-1.291,1.448-1.917,2.516-1.878,3.201c0.267,0.672,1.315,0.956,3.145,0.851c0.912-0.052,1.594-0.147,2.045-0.289l-0.394-6.854
			c-2.069-0.11-4.132-0.106-6.188,0.013l-0.188-3.256c-0.108,0.121-0.33,0.25-0.666,0.382c-0.23,0.013-0.563,0.204-0.999,0.573
			l-0.554-0.656c-0.481,3.582-2.547,5.535-6.195,5.857c-0.915,0.053-1.892-0.004-2.932-0.175
			C337.844,761.893,338.14,765.084,338.541,768.041z M343.459,751.943c-0.214-1.707-2.326-2.559-6.335-2.559
			c-0.004,1.95,0.111,3.947,0.345,5.997c1.154,0.165,2.246,0.214,3.275,0.155C342.564,755.32,343.469,754.12,343.459,751.943z"/>
		<path id="XMLID_2577_" style="fill:#FFFFFF;" d="M401.755,756.152l-3.759,0.389l-0.109-1.885
			c-2.016,0.804-4.339,1.281-6.966,1.433c-3.084,0.177-4.786-1.5-5.103-5.036c-0.079-1.37-0.017-3.265,0.188-5.684
			c-1.713,0.1-3.37,0.194-4.968,0.287c-0.52,4.957-0.727,8.293-0.629,10.006c0.065,5.153,2.722,7.466,7.963,6.934
			c6.617-0.493,12.221-1.676,16.814-3.546l0.701,3.226c-4.833,1.653-10.326,2.77-16.481,3.355
			c-8.428,0.941-12.618-2.197-12.574-9.42c-0.065-1.14,0.082-4.529,0.445-10.168c-2.056,0.119-3.999,0.23-5.825,0.336l0.136-3.618
			c1.721,0.017,3.721-0.042,6.007-0.173c0.08-0.577,0.202-1.443,0.366-2.6c0.231-1.961,0.438-3.292,0.63-3.99l3.647,0.649
			c-0.265,1.39-0.553,3.357-0.864,5.894l4.797-0.275c0.351-5.865,0.665-9.377,0.941-10.54l3.637,0.479
			c-0.526,2.78-0.913,6.069-1.151,9.864c2.512-0.145,4.97-0.285,7.368-0.424c-0.312-3.42-0.678-6.777-1.096-10.079l3.578-0.55
			c0.229,4,0.483,7.424,0.763,10.271c3.881-0.224,6.448-0.428,7.7-0.616l-0.145,3.447c-2.287,0.132-4.741,0.272-7.368,0.424
			C400.962,750.354,401.413,754.226,401.755,756.152z M397.315,744.719l-7.881,0.454c-0.118,1.956-0.137,3.618-0.058,4.988
			c0.099,1.713,0.945,2.524,2.546,2.432c1.826-0.104,3.751-0.56,5.768-1.362C397.572,749.174,397.447,747.006,397.315,744.719z"/>
	</g>
</g>
</svg>
