<?xml version="1.0" encoding="iso-8859-1"?>
<!-- Generator: Adobe Illustrator 16.0.0, SVG Export Plug-In . SVG Version: 6.00 Build 0)  -->
<!DOCTYPE svg PUBLIC "-//W3C//DTD SVG 1.1//EN" "http://www.w3.org/Graphics/SVG/1.1/DTD/svg11.dtd">
<svg version="1.1" id="Layer_1" xmlns="http://www.w3.org/2000/svg" xmlns:xlink="http://www.w3.org/1999/xlink" x="0px" y="0px"
	 width="612px" height="792px" viewBox="0 0 612 792" style="enable-background:new 0 0 612 792;" xml:space="preserve">
<g id="XMLID_1557_">
	
		<path id="XMLID_1746_" style="fill:none;stroke:#040000;stroke-width:9;stroke-linecap:round;stroke-linejoin:round;stroke-miterlimit:10;" d="
		M58.647,183.783c-1.325,9.94-1.988,57.654,3.976,66.932"/>
	
		<path id="XMLID_1745_" style="fill:none;stroke:#040000;stroke-width:9;stroke-linecap:round;stroke-linejoin:round;stroke-miterlimit:10;" d="
		M68.809,179.807c0,0,38.215-20.985,57.654-22.31"/>
	
		<path id="XMLID_1744_" style="fill:none;stroke:#040000;stroke-width:9;stroke-linecap:round;stroke-linejoin:round;stroke-miterlimit:10;" d="
		M90.015,150.207c0,0,17.364,51.383,31.367,65.385c5.743,5.743,7.068-2.651,7.068-2.651"/>
	
		<path id="XMLID_1743_" style="fill:none;stroke:#040000;stroke-width:9;stroke-linecap:round;stroke-linejoin:round;stroke-miterlimit:10;" d="
		M121.823,189.526c-4.418,2.209-17.229,26.507-17.229,26.507"/>
	
		<line id="XMLID_1742_" style="fill:none;stroke:#040000;stroke-width:9;stroke-linecap:round;stroke-linejoin:round;stroke-miterlimit:10;" x1="106.36" y1="141.371" x2="112.987" y2="142.254"/>
	
		<path id="XMLID_1741_" style="fill:none;stroke:#040000;stroke-width:9;stroke-linecap:round;stroke-linejoin:round;stroke-miterlimit:10;" d="
		M65.938,208.302c7.068-5.301,28.495-14.358,25.402,4.639c-3.889,23.888-18.996,21.206-22.09,18.997"/>
	
		<path id="XMLID_1740_" style="fill:none;stroke:#040000;stroke-width:9;stroke-linecap:round;stroke-linejoin:round;stroke-miterlimit:10;" d="
		M69.029,193.281c0,0,8.395-6.185,15.904-6.185"/>
	
		<path id="XMLID_1739_" style="fill:none;stroke:#040000;stroke-width:9;stroke-linecap:round;stroke-linejoin:round;stroke-miterlimit:10;" d="
		M80.456,246.412c0,0-4.517,36.129,3.011,45.663c7.526,9.534,24.588,6.523,38.136-16.058"/>
	
		<path id="XMLID_1738_" style="fill:none;stroke:#040000;stroke-width:9;stroke-linecap:round;stroke-linejoin:round;stroke-miterlimit:10;" d="
		M63.949,265.293c0,0-2.651,5.301-1.768,9.278"/>
	
		<path id="XMLID_1737_" style="fill:none;stroke:#040000;stroke-width:9;stroke-linecap:round;stroke-linejoin:round;stroke-miterlimit:10;" d="
		M100.176,240.774c0,0,4.418,12.812,3.977,20.322"/>
	
		<path id="XMLID_1736_" style="fill:none;stroke:#040000;stroke-width:9;stroke-linecap:round;stroke-linejoin:round;stroke-miterlimit:10;" d="
		M128.009,242.983c0,0,3.093,10.161,2.65,17.23"/>
</g>
<g id="XMLID_1747_">
	
		<path id="XMLID_1735_" style="fill:none;stroke:#040000;stroke-width:9;stroke-linecap:round;stroke-linejoin:round;stroke-miterlimit:10;" d="
		M147.006,181.574c0,0,8.836,30.483,11.045,33.134"/>
	
		<path id="XMLID_1734_" style="fill:none;stroke:#040000;stroke-width:9;stroke-linecap:round;stroke-linejoin:round;stroke-miterlimit:10;" d="
		M158.051,182.458c0,0,20.322-8.394,35.784-10.603c15.463-2.209,29.821,3.093,20.985,31.809"/>
	
		<line id="XMLID_1733_" style="fill:none;stroke:#040000;stroke-width:9;stroke-linecap:round;stroke-linejoin:round;stroke-miterlimit:10;" x1="161.364" y1="147.998" x2="168.653" y2="166.553"/>
	
		<line id="XMLID_1732_" style="fill:none;stroke:#040000;stroke-width:9;stroke-linecap:round;stroke-linejoin:round;stroke-miterlimit:10;" x1="181.5" y1="145" x2="181.5" y2="160"/>
	
		<line id="XMLID_1731_" style="fill:none;stroke:#040000;stroke-width:9;stroke-linecap:round;stroke-linejoin:round;stroke-miterlimit:10;" x1="207.752" y1="142.696" x2="199.8" y2="159.926"/>
	
		<path id="XMLID_1730_" style="fill:none;stroke:#040000;stroke-width:9;stroke-linecap:round;stroke-linejoin:round;stroke-miterlimit:10;" d="
		M171.304,222.219c-4.639-19.88-4.97-23.194,9.94-26.507c13.194-2.932,25.845-4.639,18.556,25.182"/>
	
		<path id="XMLID_1729_" style="fill:none;stroke:#040000;stroke-width:9;stroke-linecap:round;stroke-linejoin:round;stroke-miterlimit:10;" d="
		M179.256,229.288c0,0-4.859,20.322-8.836,27.391"/>
	
		<path id="XMLID_1728_" style="fill:none;stroke:#040000;stroke-width:9;stroke-linecap:round;stroke-linejoin:round;stroke-miterlimit:10;" d="
		M185,216.917c0,0,1.767,19.88,3.313,29.158c1.524,9.151,5.301,11.707,18.334,7.952c13.69-3.945,18.918-4.601,14.138-12.149"/>
</g>
<g id="XMLID_1748_">
	
		<path id="XMLID_1727_" style="fill:none;stroke:#040000;stroke-width:9;stroke-linecap:round;stroke-linejoin:round;stroke-miterlimit:10;" d="
		M240.224,185.992c0,0,5.743,29.6,4.418,49.039"/>
	
		<path id="XMLID_1726_" style="fill:none;stroke:#040000;stroke-width:9;stroke-linecap:round;stroke-linejoin:round;stroke-miterlimit:10;" d="
		M248.176,181.574c3.977-4.86,16.566-9.72,17.893,0c1.325,9.719,2.43,24.298,1.325,46.388"/>
	
		<line id="XMLID_1725_" style="fill:none;stroke:#040000;stroke-width:9;stroke-linecap:round;stroke-linejoin:round;stroke-miterlimit:10;" x1="251.931" y1="194.386" x2="257.674" y2="195.711"/>
	
		<line id="XMLID_1724_" style="fill:none;stroke:#040000;stroke-width:9;stroke-linecap:round;stroke-linejoin:round;stroke-miterlimit:10;" x1="252.152" y1="212.941" x2="259.883" y2="208.965"/>
	
		<path id="XMLID_1723_" style="fill:none;stroke:#040000;stroke-width:9;stroke-linecap:round;stroke-linejoin:round;stroke-miterlimit:10;" d="
		M287.495,171.854c0,0,10.603-7.51,27.391-10.603"/>
	
		<path id="XMLID_1722_" style="fill:none;stroke:#040000;stroke-width:9;stroke-linecap:round;stroke-linejoin:round;stroke-miterlimit:10;" d="
		M280.205,188.201c0,0-1.104,18.997,0.221,29.158c1.326,10.161,1.547,12.812,14.359,11.045c12.812-1.767,20.984-1.767,24.077-4.86
		c3.093-3.092,0.884-6.626,0.884-6.626"/>
	
		<path id="XMLID_1721_" style="fill:none;stroke:#040000;stroke-width:9;stroke-linecap:round;stroke-linejoin:round;stroke-miterlimit:10;" d="
		M312.235,185.992c0,0-20.765,20.764-22.974,28.717"/>
	
		<path id="XMLID_1720_" style="fill:none;stroke:#040000;stroke-width:9;stroke-linecap:round;stroke-linejoin:round;stroke-miterlimit:10;" d="
		M290.146,192.619c0,0,10.161,11.487,15.021,17.672"/>
</g>
<path id="XMLID_1719_" style="fill:none;stroke:#040000;stroke-width:9;stroke-linecap:round;stroke-linejoin:round;stroke-miterlimit:10;" d="
	M296.109,154.404c-0.441-6.185-9.719-51.689,38.878-80.848"/>
<path id="XMLID_1718_" style="fill:none;stroke:#040000;stroke-width:9;stroke-linecap:round;stroke-linejoin:round;stroke-miterlimit:10;" d="
	M344.707,79.741c0,0,6.185,11.928,18.113,11.928s26.065-10.603,16.347-19.438c-7.526-6.842-22.311-0.442-22.311-0.442"/>
<path id="XMLID_1717_" style="fill:none;stroke:#040000;stroke-width:9;stroke-linecap:round;stroke-linejoin:round;stroke-miterlimit:10;" d="
	M333,61.628c-1.326-8.836-8.395-19.881-15.904-22.532c-7.511-2.65-25.183-0.883-20.765,8.394
	c4.418,9.278,17.229,12.812,17.229,12.812"/>
<g id="XMLID_1749_">
	
		<path id="XMLID_1716_" style="fill:none;stroke:#040000;stroke-width:9;stroke-linecap:round;stroke-linejoin:round;stroke-miterlimit:10;" d="
		M330.349,176.714c0,0,6.186-12.37,14.138-18.997"/>
	
		<line id="XMLID_1710_" style="fill:none;stroke:#040000;stroke-width:9;stroke-linecap:round;stroke-linejoin:round;stroke-miterlimit:10;" x1="356.414" y1="165.449" x2="372.981" y2="163.019"/>
	
		<path id="XMLID_1709_" style="fill:none;stroke:#040000;stroke-width:9;stroke-linecap:round;stroke-linejoin:round;stroke-miterlimit:10;" d="
		M340.068,172.738c0,0-0.884,13.695,1.767,20.322"/>
	
		<path id="XMLID_1708_" style="fill:none;stroke:#040000;stroke-width:9;stroke-linecap:round;stroke-linejoin:round;stroke-miterlimit:10;" d="
		M363.262,154.183c0,0-2.209,32.25,0.884,36.668s6.627-1.325,6.627-1.325"/>
	
		<line id="XMLID_1707_" style="fill:none;stroke:#040000;stroke-width:9;stroke-linecap:round;stroke-linejoin:round;stroke-miterlimit:10;" x1="373.423" y1="150.207" x2="376.957" y2="154.183"/>
	
		<line id="XMLID_1706_" style="fill:none;stroke:#040000;stroke-width:9;stroke-linecap:round;stroke-linejoin:round;stroke-miterlimit:10;" x1="353.543" y1="193.281" x2="352.659" y2="196.374"/>
	
		<path id="XMLID_1705_" style="fill:none;stroke:#040000;stroke-width:9;stroke-linecap:round;stroke-linejoin:round;stroke-miterlimit:10;" d="
		M337.197,207.86c0,0,22.089-5.743,29.6-5.301"/>
	
		<path id="XMLID_1704_" style="fill:none;stroke:#040000;stroke-width:9;stroke-linecap:round;stroke-linejoin:round;stroke-miterlimit:10;" d="
		M346.475,209.628c0,0-6.186,19.88-1.768,26.507s6.185-0.884,6.185-0.884"/>
	
		<path id="XMLID_1703_" style="fill:none;stroke:#040000;stroke-width:9;stroke-linecap:round;stroke-linejoin:round;stroke-miterlimit:10;" d="
		M356.414,210.069c0,0,9.72,30.926,30.926,34.46"/>
	
		<line id="XMLID_1702_" style="fill:none;stroke:#040000;stroke-width:9;stroke-linecap:round;stroke-linejoin:round;stroke-miterlimit:10;" x1="384.247" y1="223.323" x2="378.945" y2="230.392"/>
	
		<path id="XMLID_1701_" style="fill:none;stroke:#040000;stroke-width:9;stroke-linecap:round;stroke-linejoin:round;stroke-miterlimit:10;" d="
		M348.241,210.069c0,0-12.812,11.045-18.997,15.463"/>
</g>
<g id="XMLID_1750_">
	
		<line id="XMLID_1700_" style="fill:none;stroke:#040000;stroke-width:9;stroke-linecap:round;stroke-linejoin:round;stroke-miterlimit:10;" x1="412.964" y1="149.986" x2="414.068" y2="158.822"/>
	
		<path id="XMLID_1699_" style="fill:none;stroke:#040000;stroke-width:9;stroke-linecap:round;stroke-linejoin:round;stroke-miterlimit:10;" d="
		M402.14,166.332c7.068,1.768,20.985,6.185,11.266,13.696c-9.72,7.51-22.531,13.253-22.531,13.253"/>
	
		<line id="XMLID_1698_" style="fill:none;stroke:#040000;stroke-width:9;stroke-linecap:round;stroke-linejoin:round;stroke-miterlimit:10;" x1="396.617" y1="221.556" x2="405.012" y2="195.49"/>
	
		<path id="XMLID_1697_" style="fill:none;stroke:#040000;stroke-width:9;stroke-linecap:round;stroke-linejoin:round;stroke-miterlimit:10;" d="
		M432.623,174.505c0,0,12.37,1.767,18.997,3.092c6.627,1.326,15.021,5.302-1.325,15.905"/>
	
		<path id="XMLID_1696_" style="fill:none;stroke:#040000;stroke-width:9;stroke-linecap:round;stroke-linejoin:round;stroke-miterlimit:10;" d="
		M426.88,184.225c0,0-9.94,31.367-14.8,40.203"/>
	
		<path id="XMLID_1695_" style="fill:none;stroke:#040000;stroke-width:9;stroke-linecap:round;stroke-linejoin:round;stroke-miterlimit:10;" d="
		M430.855,204.989c7.512,3.093,21.207,4.418,11.93,14.579c-9.278,10.161-22.09,15.905-22.09,15.905"/>
	
		<path id="XMLID_1694_" style="fill:none;stroke:#040000;stroke-width:9;stroke-linecap:round;stroke-linejoin:round;stroke-miterlimit:10;" d="
		M428.205,217.801c0,0,5.965,19.218,9.499,24.961"/>
	
		<path id="XMLID_1693_" style="fill:none;stroke:#040000;stroke-width:9;stroke-linecap:round;stroke-linejoin:round;stroke-miterlimit:10;" d="
		M450.957,154.846c0,0-10.382,30.263-12.59,38.215"/>
	
		<line id="XMLID_1692_" style="fill:none;stroke:#040000;stroke-width:9;stroke-linecap:round;stroke-linejoin:round;stroke-miterlimit:10;" x1="409.871" y1="183.12" x2="414.73" y2="187.98"/>
	
		<line id="XMLID_1691_" style="fill:none;stroke:#040000;stroke-width:9;stroke-linecap:round;stroke-linejoin:round;stroke-miterlimit:10;" x1="411.639" y1="201.234" x2="405.896" y2="191.072"/>
</g>
<g id="XMLID_1751_">
	
		<line id="XMLID_1690_" style="fill:none;stroke:#040000;stroke-width:9;stroke-linecap:round;stroke-linejoin:round;stroke-miterlimit:10;" x1="471.722" y1="192.177" x2="491.16" y2="195.27"/>
	
		<line id="XMLID_1689_" style="fill:none;stroke:#040000;stroke-width:9;stroke-linecap:round;stroke-linejoin:round;stroke-miterlimit:10;" x1="459.352" y1="219.568" x2="479.896" y2="215.592"/>
	
		<path id="XMLID_1688_" style="fill:none;stroke:#040000;stroke-width:9;stroke-linecap:round;stroke-linejoin:round;stroke-miterlimit:10;" d="
		M484.533,179.807c0,0-16.346,50.144-25.182,61.63"/>
	
		<path id="XMLID_1687_" style="fill:none;stroke:#040000;stroke-width:9;stroke-linecap:round;stroke-linejoin:round;stroke-miterlimit:10;" d="
		M517.668,187.759l-14.137,9.277c0,0,14.578,3.534,18.112,7.51c3.534,3.977,11.929,12.371,1.768,29.6
		c-10.161,17.23-19.491,27.598-22.31,27.833c-5.302,0.442-7.291-4.418-7.291-4.418"/>
	
		<polyline id="XMLID_1686_" style="fill:none;stroke:#040000;stroke-width:9;stroke-linecap:round;stroke-linejoin:round;stroke-miterlimit:10;" points="
		502.205,209.407 489.835,218.685 510.6,219.126 	"/>
	
		<line id="XMLID_1685_" style="fill:none;stroke:#040000;stroke-width:9;stroke-linecap:round;stroke-linejoin:round;stroke-miterlimit:10;" x1="490.277" y1="231.055" x2="504.635" y2="232.822"/>
	
		<line id="XMLID_1684_" style="fill:none;stroke:#040000;stroke-width:9;stroke-linecap:round;stroke-linejoin:round;stroke-miterlimit:10;" x1="502.205" y1="221.777" x2="493.369" y2="238.786"/>
	
		<path id="XMLID_1683_" style="fill:none;stroke:#040000;stroke-width:9;stroke-linecap:round;stroke-linejoin:round;stroke-miterlimit:10;" d="
		M480.558,233.484c-3.534,5.743-8.836,16.125,20.322,13.475"/>
</g>
<g id="XMLID_1752_">
	
		<path id="XMLID_1682_" style="fill:none;stroke:#040000;stroke-width:9;stroke-linecap:round;stroke-linejoin:round;stroke-miterlimit:10;" d="
		M546.164,208.302c-2.354,3.66-6.477,6.033,0.441,7.731c1.268,0.312,10.494,1.318,33.797,6.627
		c9.477,2.159,11.045,6.627,3.093,13.695"/>
	
		<line id="XMLID_1681_" style="fill:none;stroke:#040000;stroke-width:9;stroke-linecap:round;stroke-linejoin:round;stroke-miterlimit:10;" x1="566.266" y1="205.21" x2="570.021" y2="211.837"/>
	
		<line id="XMLID_1680_" style="fill:none;stroke:#040000;stroke-width:9;stroke-linecap:round;stroke-linejoin:round;stroke-miterlimit:10;" x1="546.164" y1="230.392" x2="536.887" y2="236.135"/>
	
		<path id="XMLID_1679_" style="fill:none;stroke:#040000;stroke-width:9;stroke-linecap:round;stroke-linejoin:round;stroke-miterlimit:10;" d="
		M564.498,230.392c3.534,1.767,8.836,5.301,11.486,12.37"/>
	
		<path id="XMLID_1678_" style="fill:none;stroke:#040000;stroke-width:9;stroke-linecap:round;stroke-linejoin:round;stroke-miterlimit:10;" d="
		M543.513,244.971c1.325,0,20.543,1.104,21.869,7.731c1.325,6.627-19.218,14.8-19.218,14.8"/>
	
		<path id="XMLID_1677_" style="fill:none;stroke:#040000;stroke-width:9;stroke-linecap:round;stroke-linejoin:round;stroke-miterlimit:10;" d="
		M527.388,269.49c0,0,25.182,6.848,34.901,13.475"/>
</g>
</svg>
