<?xml version="1.0" encoding="iso-8859-1"?>
<!-- Generator: Adobe Illustrator 16.0.0, SVG Export Plug-In . SVG Version: 6.00 Build 0)  -->
<!DOCTYPE svg PUBLIC "-//W3C//DTD SVG 1.1//EN" "http://www.w3.org/Graphics/SVG/1.1/DTD/svg11.dtd">
<svg version="1.1" id="Layer_1" xmlns="http://www.w3.org/2000/svg" xmlns:xlink="http://www.w3.org/1999/xlink" x="0px" y="0px"
	 width="612px" height="792px" viewBox="0 0 612 792" style="enable-background:new 0 0 612 792;" xml:space="preserve">
<g id="XMLID_1646_">
	
		<path id="XMLID_1676_" style="fill:none;stroke:#040000;stroke-width:9;stroke-linecap:round;stroke-linejoin:round;stroke-miterlimit:10;" d="
		M221.02,354.114c9.188,17.611,12.227,63.429,14.531,74.185"/>
	
		<line id="XMLID_1655_" style="fill:none;stroke:#040000;stroke-width:9;stroke-linecap:round;stroke-linejoin:round;stroke-miterlimit:10;" x1="216.432" y1="395.413" x2="214.137" y2="402.296"/>
	
		<line id="XMLID_1654_" style="fill:none;stroke:#040000;stroke-width:9;stroke-linecap:round;stroke-linejoin:round;stroke-miterlimit:10;" x1="239.375" y1="383.176" x2="243.964" y2="392.354"/>
	
		<path id="XMLID_1653_" style="fill:none;stroke:#040000;stroke-width:9;stroke-linecap:round;stroke-linejoin:round;stroke-miterlimit:10;" d="
		M250.082,376.909c0,0,20.691-17.243,30.175-12.932c8.348,3.794,2.587,14.656-4.31,19.829c-6.897,5.173-18.968,12.07-18.968,12.07
		s18.968-6.897,31.037-5.173"/>
	
		<path id="XMLID_1652_" style="fill:none;stroke:#040000;stroke-width:9;stroke-linecap:round;stroke-linejoin:round;stroke-miterlimit:10;" d="
		M269.81,354.114c-3.448,10.92-9.961,48.085-7.087,64.753"/>
	
		<line id="XMLID_1651_" style="fill:none;stroke:#040000;stroke-width:9;stroke-linecap:round;stroke-linejoin:round;stroke-miterlimit:10;" x1="278.816" y1="408.141" x2="288.587" y2="416.762"/>
</g>
<g id="XMLID_1632_">
	
		<path id="XMLID_1645_" style="fill:none;stroke:#040000;stroke-width:9;stroke-linecap:round;stroke-linejoin:round;stroke-miterlimit:10;" d="
		M304.412,353.419c0,0,28.27-9.927,40.785-9.495"/>
	
		<path id="XMLID_1644_" style="fill:none;stroke:#040000;stroke-width:9;stroke-linecap:round;stroke-linejoin:round;stroke-miterlimit:10;" d="
		M307.217,365.936c1.727,1.726,4.101,2.374,6.689,3.668"/>
	
		<path id="XMLID_1643_" style="fill:none;stroke:#040000;stroke-width:9;stroke-linecap:round;stroke-linejoin:round;stroke-miterlimit:10;" d="
		M346.924,357.735c0,0-3.669,5.826-6.258,8.416"/>
	
		<path id="XMLID_1642_" style="fill:none;stroke:#040000;stroke-width:9;stroke-linecap:round;stroke-linejoin:round;stroke-miterlimit:10;" d="
		M301.391,391.399c0,0,44.238-10.79,49.85-10.79c5.61,0,7.121-2.805,7.121-2.805"/>
	
		<path id="XMLID_1636_" style="fill:none;stroke:#040000;stroke-width:9;stroke-linecap:round;stroke-linejoin:round;stroke-miterlimit:10;" d="
		M325.56,334.86c0,0,7.338,71.646,9.063,84.161"/>
	
		<line id="XMLID_1635_" style="fill:none;stroke:#040000;stroke-width:9;stroke-linecap:round;stroke-linejoin:round;stroke-miterlimit:10;" x1="316.928" y1="401.758" x2="313.26" y2="408.232"/>
	
		<line id="XMLID_1634_" style="fill:none;stroke:#040000;stroke-width:9;stroke-linecap:round;stroke-linejoin:round;stroke-miterlimit:10;" x1="348.003" y1="396.794" x2="359.225" y2="402.405"/>
</g>
<g id="XMLID_1588_">
	
		<line id="XMLID_1626_" style="fill:none;stroke:#040000;stroke-width:9;stroke-linecap:round;stroke-linejoin:round;stroke-miterlimit:10;" x1="376.274" y1="345.905" x2="382.238" y2="354.52"/>
	
		<path id="XMLID_1625_" style="fill:none;stroke:#040000;stroke-width:9;stroke-linecap:round;stroke-linejoin:round;stroke-miterlimit:10;" d="
		M371.193,361.368c0,0,7.511,9.277,10.161,13.695c2.651,4.418-8.394,12.812-8.836,18.555c-0.441,5.743,12.812,18.997,12.812,18.997"
		/>
	
		<line id="XMLID_1624_" style="fill:none;stroke:#040000;stroke-width:9;stroke-linecap:round;stroke-linejoin:round;stroke-miterlimit:10;" x1="391.516" y1="348.556" x2="431.939" y2="339.058"/>
	
		<line id="XMLID_1623_" style="fill:none;stroke:#040000;stroke-width:9;stroke-linecap:round;stroke-linejoin:round;stroke-miterlimit:10;" x1="398.143" y1="337.511" x2="403.002" y2="350.544"/>
	
		<line id="XMLID_1622_" style="fill:none;stroke:#040000;stroke-width:9;stroke-linecap:round;stroke-linejoin:round;stroke-miterlimit:10;" x1="419.349" y1="330.884" x2="419.128" y2="344.359"/>
	
		<path id="XMLID_1620_" style="fill:none;stroke:#040000;stroke-width:9;stroke-linecap:round;stroke-linejoin:round;stroke-miterlimit:10;" d="
		M396.817,358.275c-2.65,3.093-5.743,7.952-1.767,11.045c3.976,3.092,14.578,4.197,15.462-1.546s-5.522-7.51-5.522-7.51"/>
	
		<path id="XMLID_1619_" style="fill:none;stroke:#040000;stroke-width:9;stroke-linecap:round;stroke-linejoin:round;stroke-miterlimit:10;" d="
		M419.79,353.416c0,0-3.092,3.535-2.65,7.511c0.442,3.976,3.534,6.185,9.278,6.185c5.742,0,9.719-3.534,9.719-7.952
		s-8.615-5.302-8.615-5.302"/>
	
		<line id="XMLID_1618_" style="fill:none;stroke:#040000;stroke-width:9;stroke-linecap:round;stroke-linejoin:round;stroke-miterlimit:10;" x1="399.91" y1="379.923" x2="389.086" y2="388.98"/>
	
		<path id="XMLID_1617_" style="fill:none;stroke:#040000;stroke-width:9;stroke-linecap:round;stroke-linejoin:round;stroke-miterlimit:10;" d="
		M395.051,387.654c0,0,0.662,18.555,4.196,23.857"/>
	
		<polyline id="XMLID_1616_" style="fill:none;stroke:#040000;stroke-width:9;stroke-linecap:round;stroke-linejoin:round;stroke-miterlimit:10;" points="
		418.907,374.622 423.324,378.156 422.883,409.523 	"/>
	
		<path id="XMLID_1592_" style="fill:none;stroke:#040000;stroke-width:9;stroke-linecap:round;stroke-linejoin:round;stroke-miterlimit:10;" d="
		M406.979,383.458c0,0,24.299-5.964,30.926-5.081"/>
	
		<path id="XMLID_1591_" style="fill:none;stroke:#040000;stroke-width:9;stroke-linecap:round;stroke-linejoin:round;stroke-miterlimit:10;" d="
		M409.629,392.735c10.604-2.209,19.137-1.768,24.52-1.768"/>
	
		<line id="XMLID_1590_" style="fill:none;stroke:#040000;stroke-width:9;stroke-linecap:round;stroke-linejoin:round;stroke-miterlimit:10;" x1="409.188" y1="402.013" x2="433.486" y2="401.35"/>
	
		<line id="XMLID_1589_" style="fill:none;stroke:#040000;stroke-width:9;stroke-linecap:round;stroke-linejoin:round;stroke-miterlimit:10;" x1="409.188" y1="411.29" x2="437.463" y2="411.512"/>
</g>
<g id="XMLID_1558_">
	
		<line id="XMLID_1579_" style="fill:none;stroke:#040000;stroke-width:9;stroke-linecap:round;stroke-linejoin:round;stroke-miterlimit:10;" x1="456.018" y1="348.556" x2="466.62" y2="355.183"/>
	
		<path id="XMLID_1578_" style="fill:none;stroke:#040000;stroke-width:9;stroke-linecap:round;stroke-linejoin:round;stroke-miterlimit:10;" d="
		M455.134,367.995c0,0,8.836,3.976,9.72,11.487c0.883,7.51-8.395,14.579-9.278,19.438c-0.883,4.859,5.302,15.021,5.302,15.021"/>
	
		<path id="XMLID_1574_" style="fill:none;stroke:#040000;stroke-width:9;stroke-linecap:round;stroke-linejoin:round;stroke-miterlimit:10;" d="
		M483.408,357.392c0,0,25.402-0.663,33.797,1.546"/>
	
		<line id="XMLID_1573_" style="fill:none;stroke:#040000;stroke-width:9;stroke-linecap:round;stroke-linejoin:round;stroke-miterlimit:10;" x1="487.826" y1="345.905" x2="490.035" y2="364.46"/>
	
		<line id="XMLID_1572_" style="fill:none;stroke:#040000;stroke-width:9;stroke-linecap:round;stroke-linejoin:round;stroke-miterlimit:10;" x1="511.684" y1="347.23" x2="506.382" y2="364.46"/>
	
		<path id="XMLID_1569_" style="fill:none;stroke:#040000;stroke-width:9;stroke-linecap:round;stroke-linejoin:round;stroke-miterlimit:10;" d="
		M480.758,373.296c0,0,26.508-1.326,35.344,0"/>
	
		<path id="XMLID_1568_" style="fill:none;stroke:#040000;stroke-width:9;stroke-linecap:round;stroke-linejoin:round;stroke-miterlimit:10;" d="
		M475.677,385.004c0,0-1.767,21.205,1.768,26.065"/>
	
		<path id="XMLID_1567_" style="fill:none;stroke:#040000;stroke-width:9;stroke-linecap:round;stroke-linejoin:round;stroke-miterlimit:10;" d="
		M485.176,385.667c0,0,12.389-0.57,25.182,1.325c11.929,1.767,6.186,18.776-1.325,29.379"/>
	
		<line id="XMLID_1566_" style="fill:none;stroke:#040000;stroke-width:9;stroke-linecap:round;stroke-linejoin:round;stroke-miterlimit:10;" x1="493.128" y1="378.598" x2="481.199" y2="401.57"/>
	
		<line id="XMLID_1565_" style="fill:none;stroke:#040000;stroke-width:9;stroke-linecap:round;stroke-linejoin:round;stroke-miterlimit:10;" x1="491.36" y1="399.804" x2="485.176" y2="394.061"/>
	
		<line id="XMLID_1560_" style="fill:none;stroke:#040000;stroke-width:9;stroke-linecap:round;stroke-linejoin:round;stroke-miterlimit:10;" x1="510.8" y1="383.016" x2="499.312" y2="402.455"/>
	
		<line id="XMLID_1559_" style="fill:none;stroke:#040000;stroke-width:9;stroke-linecap:round;stroke-linejoin:round;stroke-miterlimit:10;" x1="509.916" y1="401.35" x2="504.173" y2="395.828"/>
</g>
<path id="XMLID_1754_" style="fill:#040000;" d="M271.989,455.957c-10.152,3.868-17.696,18.917-11.594,29.29
	c6.103,10.374,6.103,20.137,22.577,20.747c16.476,0.609,89.032-7.322,118.379-7.322c34.781,0,38.522-24.455,39.053-27.459
	c1.831-10.373-10.373-25.019-21.357-26.85c-10.982-1.83-80.546-0.609-98.852,2.441C301.889,449.855,284.804,451.076,271.989,455.957
	z"/>
<g id="XMLID_2541_">
	<path id="XMLID_2542_" style="fill:#FFFFFF;" d="M276.112,489.361l-3.143-0.851c1.632-5.479,3.039-10.89,4.224-16.229
		c-1.371,0.078-2.629,0.15-3.77,0.217l-0.006-3.094c1.727,0.131,3.445,0.146,5.159,0.047c-0.052-0.913-0.193-2.336-0.417-4.273
		c-0.105-1.826-0.242-3.193-0.408-4.103l3.427-0.197c0.049,2.863,0.156,5.723,0.32,8.577c0.344-0.02,0.914-0.053,1.714-0.099
		c0.92,0.062,1.609,0.079,2.066,0.052l-0.175,2.934c-0.35-0.094-0.926-0.119-1.724-0.072c-0.807-0.067-1.439-0.09-1.894-0.063
		l0.325,5.653c1.548,1.059,3.211,2.051,4.984,2.979l-1.909,2.688c-0.847-0.752-1.745-1.446-2.698-2.079
		c0.099,1.713,0.3,4.224,0.605,7.528c0.178,3.084,0.312,5.424,0.404,7.025l-3.074,0.349c-0.134-6.294-0.502-12.692-1.104-19.189
		c-0.271,1.278-0.729,3.308-1.369,6.096C277.004,485.932,276.489,487.965,276.112,489.361z M288.69,465.946l2.296,1.071
		c0.563-0.145,1.074-0.234,1.532-0.26c-0.039-0.686-0.078-1.37-0.118-2.056c-2.057,0.118-4.108,0.295-6.158,0.526l-0.177-3.084
		c0.57-0.033,1.541-0.089,2.912-0.168c1.489,0.029,2.58,0.023,3.266-0.016c-0.06-1.028-0.177-2.053-0.35-3.074l3.085-0.178
		c0.06,1.027,0.122,2.115,0.188,3.255c0.797-0.046,1.713-0.099,2.741-0.157c-0.026-0.455-0.06-1.027-0.099-1.713
		c-0.162-0.791-0.251-1.361-0.271-1.704l2.912-0.167c0.065,1.143,0.132,2.285,0.197,3.426c2.057-0.118,4.112-0.236,6.169-0.354
		l-0.166,3.104c-1.956-0.117-3.961-0.117-6.016,0.002c0.033,0.572,0.06,1.027,0.079,1.37c5.031-0.174,7.561,1.972,7.59,6.44
		c0.46,6.049-3.937,9.28-13.193,9.697c-6.044,0.578-9.025-1.484-8.952-6.189C285.929,471.723,286.771,468.464,288.69,465.946z
		 M289.123,482.424l3,1.375c2.36-0.824,4.966-1.316,7.823-1.481c5.14-0.296,7.82,1.501,8.044,5.382
		c-0.06,4.93-3.51,7.707-10.35,8.332c-6.854,0.394-10.411-1.695-10.674-6.263C286.848,487.713,287.566,485.265,289.123,482.424z
		 M293.229,479.094c-0.079-1.37-0.154-2.682-0.227-3.94l-3.77,0.217l0.029,0.514C289.271,478.062,290.593,479.133,293.229,479.094z
		 M292.834,472.24l-0.147-2.569c-0.23,0.013-0.683,0.098-1.361,0.25c-0.565,0.147-1.014,0.289-1.352,0.422
		c-0.075,0.692-0.213,1.274-0.415,1.743c0.343-0.02,0.918,0.006,1.724,0.072C291.968,472.118,292.485,472.148,292.834,472.24z
		 M301.804,487.712l-0.177,2.933c-3.668-0.018-7.386,0.08-11.156,0.297c0.784,1.675,3.004,2.406,6.66,2.196
		c5.238-0.532,7.896-2.174,7.967-4.928c-0.348-2.043-1.894-3.042-4.641-2.999c-2.972,0.171-6.254,0.875-9.85,2.113
		c0.007,0.115-0.049,0.175-0.162,0.182c-0.108,0.121-0.151,0.352-0.132,0.695C294.203,488.092,298.034,487.929,301.804,487.712z
		 M298.055,464.377c-0.916,0.053-1.886,0.107-2.913,0.167c0.033,0.573,0.066,1.144,0.099,1.714l2.903-0.34L298.055,464.377z
		 M298.508,472.258c-0.071-1.256-0.138-2.398-0.196-3.427c-0.343,0.021-0.801,0.046-1.371,0.079c-0.68,0.154-1.189,0.24-1.532,0.26
		c0.059,1.028,0.118,2.057,0.177,3.084C296.612,472.195,297.586,472.198,298.508,472.258z M298.701,478.607
		c-0.065-1.141-0.132-2.283-0.197-3.427c-0.229,0.014-0.629,0.036-1.199,0.069c-0.692-0.073-1.209-0.104-1.552-0.083
		c0.02,0.343,0.112,0.969,0.28,1.874c0.046,0.801,0.082,1.43,0.108,1.885C297.054,478.874,297.908,478.769,298.701,478.607z
		 M303.144,472.163l0.006,3.094c-0.69-0.073-1.323-0.096-1.894-0.062l0.158,2.741c2.694-0.955,3.908-2.744,3.645-5.367
		c-0.046-2.747-1.437-4.043-4.177-3.885l0.196,3.427C301.77,472.186,302.459,472.203,303.144,472.163z"/>
	<path id="XMLID_2568_" style="fill:#FFFFFF;" d="M317.516,475.806l-0.188-3.255c0.228-0.014,0.518,0.029,0.866,0.122
		c1.27,0.158,2.188,0.218,2.761,0.185c0.094-0.349,0.295-0.877,0.598-1.581c0.188-0.698,0.329-1.222,0.425-1.571
		c-1.937,0.227-4.496,0.546-7.681,0.957c-1.021,0.175-1.763,0.273-2.217,0.299l-0.35-3.074c2.956-0.397,6.601-0.779,10.937-1.145
		c0.092-0.349,0.234-0.872,0.425-1.57c0.277-1.161,0.513-2.033,0.709-2.619c-1.814,0.334-4.128,0.982-6.936,1.945l-0.844-2.702
		c3.697-1.472,9.135-2.588,16.312-3.345c5.925-0.568,8.963,1.435,9.112,6.008c1.812-0.332,3.403-0.596,4.768-0.79l0.178,3.085
		c-0.452,0.141-1.249,0.242-2.389,0.309c-1.022,0.174-1.819,0.277-2.39,0.31c0.092,5.61-3.866,8.532-11.872,8.763
		c-1.943,0.111-4.062,0.12-6.36,0.021c-2.241,6.893-4.222,12.275-5.946,16.157l-3.153-1.022c1.946-4.006,3.888-9.104,5.825-15.29
		C319.077,476.061,318.215,475.997,317.516,475.806z M324.102,479.725l2.447,0.719c4.054-1.265,7.049-1.953,8.992-2.064
		c5.253-0.303,8.004,1.662,8.246,5.887c0.296,5.14-3.898,7.959-12.578,8.459c-6.055,0.348-9.148-1.652-9.283-5.999
		C321.874,483.865,322.599,481.53,324.102,479.725z M338.024,467.75c-1.259,0.072-3.249,0.303-5.978,0.688
		c-2.965,0.286-5.126,0.526-6.49,0.717c-0.096,0.35-0.287,0.992-0.577,1.925c-0.184,0.813-0.376,1.456-0.577,1.925
		c2.062-0.004,3.893-0.053,5.493-0.145C335.042,472.678,337.751,470.976,338.024,467.75z M335.729,481.635
		c-3.308,0.306-6.53,1.062-9.667,2.275c-0.284,1.047-0.396,2.085-0.338,3.113c0.018,2.293,1.794,3.278,5.328,2.96
		c6.047-0.461,9.099-2.184,9.158-5.169C340.184,482.409,338.691,481.352,335.729,481.635z M326.426,466.354
		c1.25-0.185,3.181-0.468,5.796-0.849c2.62-0.264,4.555-0.49,5.807-0.678c-0.273-2.735-2.062-3.948-5.367-3.646
		c-0.915,0.053-2.622,0.268-5.12,0.639C327.277,463.211,326.904,464.724,326.426,466.354z"/>
	<path id="XMLID_2574_" style="fill:#FFFFFF;" d="M356.041,490.092l-3.427,0.197c-0.4-6.965-0.696-12.105-0.887-15.42
		c-0.224-3.881-0.456-6.906-0.693-9.07l3.255-0.188c0.046,0.801,0.099,1.714,0.157,2.741c3.401-2.603,5.273-4.944,5.612-7.026
		c-0.032-0.57-0.45-0.834-1.248-0.788c-1.485,0.085-4.133,0.925-7.935,2.519l-1.559-3.176c3.81-1.479,6.916-2.289,9.315-2.428
		c3.196-0.184,4.866,0.924,5.004,3.322c0.132,2.287-1.496,4.9-4.878,7.845c2.906,0.751,4.64,1.968,5.196,3.655
		c2.991-1.776,5.483-3.295,7.474-4.557c-0.472-0.2-1.229-0.444-2.277-0.728c-0.699-0.188-1.223-0.33-1.57-0.425l1.203-2.992
		c1.752,0.587,3.624,1.282,5.619,2.083c2.407-1.97,3.583-3.472,3.523-4.5c-0.039-0.685-0.632-0.995-1.772-0.929
		c-1.144,0.064-2.767,0.733-4.87,1.998l-1.348-2.501c-0.103,0.237-0.312,0.534-0.637,0.896c-0.954,1.317-2.127,2.872-3.512,4.671
		l-2.517-1.918c2.676-3.247,5.122-6.596,7.33-10.047l2.697,2.078c-0.741,1.075-1.595,2.154-2.564,3.242
		c1.896-0.909,3.757-1.419,5.585-1.524c3.312-0.19,5.102,1.024,5.368,3.646c0.105,1.828-1.154,3.848-3.777,6.062
		c1.288,0.501,3.334,1.184,6.134,2.054c1.51,0.373,2.676,0.705,3.496,1.002l-1.364,3.174c-4.225-1.705-7.911-3.04-11.062-4.006
		c-2.092,1.496-4.912,3.264-8.461,5.3c1.269,0.158,3.11,0.28,5.521,0.37c0.229-0.014,0.398-0.023,0.515-0.029l-0.197-3.428
		l3.256-0.187c-0.037,1.377-0.021,2.639,0.045,3.779c2.188,0.218,4.373,0.323,6.551,0.312l-0.347,2.941
		c-0.115,0.007-0.287,0.017-0.515,0.029c-1.607-0.02-3.446-0.145-5.521-0.369c0.125,2.171,0.302,4.279,0.536,6.33
		c0.111-0.007,0.28-0.074,0.504-0.202c2.821-0.734,4.787-1.419,5.898-2.058l1.033,3.035c-1.446,0.77-3.861,1.597-7.248,2.479
		c0.02,0.343,0.114,1.024,0.288,2.046c0.053,0.913,0.092,1.598,0.118,2.057l-3.426,0.196l-0.217-3.77
		c-0.679,0.155-1.306,0.247-1.876,0.28c-4.232,0.13-6.589-0.996-7.069-3.375c0.021-1.605,0.884-3.546,2.587-5.822l2.859,1.898
		c-1.291,1.449-1.917,2.518-1.878,3.202c0.267,0.673,1.315,0.956,3.145,0.851c0.912-0.053,1.594-0.148,2.045-0.289l-0.394-6.854
		c-2.069-0.109-4.132-0.105-6.188,0.012l-0.188-3.255c-0.108,0.121-0.33,0.249-0.666,0.382c-0.23,0.014-0.563,0.204-0.999,0.573
		l-0.554-0.656c-0.481,3.581-2.547,5.535-6.195,5.857c-0.915,0.053-1.892-0.004-2.932-0.175
		C355.344,483.944,355.64,487.137,356.041,490.092z M360.959,473.994c-0.214-1.706-2.326-2.557-6.335-2.558
		c-0.004,1.95,0.111,3.947,0.345,5.997c1.154,0.164,2.246,0.215,3.275,0.155C360.064,477.371,360.969,476.172,360.959,473.994z"/>
	<path id="XMLID_2577_" style="fill:#FFFFFF;" d="M419.255,478.205l-3.759,0.389l-0.109-1.886c-2.016,0.804-4.339,1.281-6.966,1.433
		c-3.084,0.178-4.786-1.5-5.103-5.035c-0.079-1.371-0.017-3.266,0.188-5.684c-1.713,0.098-3.37,0.193-4.968,0.285
		c-0.52,4.959-0.727,8.293-0.629,10.006c0.065,5.154,2.722,7.467,7.963,6.935c6.617-0.493,12.221-1.676,16.814-3.546l0.701,3.227
		c-4.833,1.652-10.326,2.769-16.481,3.354c-8.428,0.941-12.618-2.195-12.574-9.418c-0.065-1.141,0.082-4.531,0.445-10.168
		c-2.056,0.117-3.999,0.229-5.825,0.334l0.136-3.617c1.721,0.017,3.721-0.041,6.007-0.174c0.08-0.576,0.202-1.442,0.366-2.6
		c0.231-1.961,0.438-3.291,0.63-3.989l3.647,0.649c-0.265,1.391-0.553,3.357-0.864,5.895l4.797-0.276
		c0.351-5.864,0.665-9.377,0.941-10.54l3.637,0.479c-0.526,2.781-0.913,6.069-1.151,9.864c2.512-0.145,4.97-0.286,7.368-0.424
		c-0.312-3.419-0.678-6.778-1.096-10.079l3.578-0.549c0.229,3.999,0.483,7.422,0.763,10.27c3.881-0.223,6.448-0.428,7.7-0.615
		l-0.145,3.447c-2.287,0.131-4.741,0.272-7.368,0.424C418.462,472.406,418.913,476.277,419.255,478.205z M414.815,466.771
		l-7.881,0.453c-0.118,1.957-0.137,3.617-0.058,4.988c0.099,1.713,0.945,2.523,2.546,2.432c1.826-0.105,3.751-0.56,5.768-1.363
		C415.072,471.226,414.947,469.057,414.815,466.771z"/>
</g>
<path id="XMLID_1755_" style="fill:none;stroke:#040000;stroke-width:9;stroke-linecap:round;stroke-linejoin:round;stroke-miterlimit:10;" d="
	M117,371c54-29,202-86,398-50"/>
<path id="XMLID_1756_" style="fill:none;stroke:#040000;stroke-width:9;stroke-linecap:round;stroke-linejoin:round;stroke-miterlimit:10;" d="
	M95,413c0,0,27.667-25.833,66.833-40"/>
</svg>
