<?xml version="1.0" encoding="iso-8859-1"?>
<!-- Generator: Adobe Illustrator 16.0.0, SVG Export Plug-In . SVG Version: 6.00 Build 0)  -->
<!DOCTYPE svg PUBLIC "-//W3C//DTD SVG 1.1//EN" "http://www.w3.org/Graphics/SVG/1.1/DTD/svg11.dtd">
<svg version="1.1" id="content" xmlns="http://www.w3.org/2000/svg" xmlns:xlink="http://www.w3.org/1999/xlink" x="0px" y="0px"
	 width="640px" height="1136px" viewBox="0 0 640 1136" style="enable-background:new 0 0 640 1136;" xml:space="preserve">
<g id="page2">
	<g id="path">
		
			<path id="XMLID_206_" style="fill:none;stroke:#040000;stroke-width:8;stroke-linecap:round;stroke-linejoin:round;stroke-miterlimit:10;" d="
			M515.562,339.171c0,0-1.757-58.457,14-104.994"/>
		
			<path id="XMLID_207_" style="fill:none;stroke:#040000;stroke-width:8;stroke-linecap:round;stroke-linejoin:round;stroke-miterlimit:10;" d="
			M492.062,268.675c0,0-3-76.496,58.998-149.492"/>
		
			<path id="XMLID_209_" style="fill:none;stroke:#040000;stroke-width:8;stroke-linecap:round;stroke-linejoin:round;stroke-miterlimit:10;" d="
			M203.577,306.675c0,0,15-85.495,79.497-118.494"/>
		
			<path id="XMLID_211_" style="fill:none;stroke:#040000;stroke-width:8;stroke-linecap:round;stroke-linejoin:round;stroke-miterlimit:10;" d="
			M118.167,526.239c0,0,1.333,17.334-28.667,20c30,11.334,23.333,29.334,16.667,42c36-6,58,16,58,16"/>
		
			<path id="XMLID_213_" style="fill:none;stroke:#040000;stroke-width:8;stroke-linecap:round;stroke-linejoin:round;stroke-miterlimit:10;" d="
			M490.9,521.239c0,0,0,13.801,26.449,16.1c-37.949,13.801-46,28.75-14.949,51.75c-37.567-6.516-64.4-6.516-50.601,24.15
			c-25.3-23-48.3-9.199-48.3-9.199"/>
	</g>
	<g id="XMLID_218_">
		
			<path id="XMLID_225_" style="fill:#FFFFFF;stroke:#040000;stroke-width:8;stroke-linecap:round;stroke-linejoin:round;stroke-miterlimit:10;" d="
			M341.347,438.989c-25.09-7.226-60.416-30.207-73.632-38.703c-13.217-8.496-5.665-27.377,14.159-25.488
			c19.824,1.888,32.097,10.383,43.425,11.328c11.328,0.943,26.564-11.963,31.152-16.992c16.362-17.937,33.984-44.369,42.48-49.089
			c8.495-4.72,31.781-5.979,28.32,7.552c-2.827,11.051-18.881,30.209-18.881,30.209s31.782-21.083,46.257-28.32
			c9.847-4.924,36.501-2.832,28.32,14.16c-6.251,12.982-28.32,29.578-53.809,55.695c-9.64,9.879-12.272,21.713,3.776,22.656
			c16.048,0.945,42.237,5.191,54.752,6.608c16.678,1.888,4.405,28.636-17.307,27.691S380.681,450.317,341.347,438.989z"/>
		
			<polygon id="XMLID_224_" style="fill:#FFFFFF;stroke:#040000;stroke-width:8;stroke-linecap:round;stroke-linejoin:round;stroke-miterlimit:10;" points="
			181.494,438.203 170.167,453.858 178.662,563.009 189.361,575.576 386.03,568.644 402.393,560.457 430.713,493.115 
			424.42,391.948 419.385,387.069 275.896,392.733 		"/>
		
			<path id="XMLID_223_" style="fill:#FFFFFF;stroke:#040000;stroke-width:8;stroke-linecap:round;stroke-linejoin:round;stroke-miterlimit:10;" d="
			M192.822,495.63c0-1.887-5.349-27.376-2.202-30.522c3.146-3.147,5.35-9.44,14.16-9.44s66.396-3.775,86.534-4.405
			s68.283-5.349,74.262-0.63c3.124,2.467,3.776,11.014,6.923,38.705c2.63,23.137,4.091,54.123,4.091,54.123l-7.237,6.607
			l-91.884,3.147"/>
		
			<path id="XMLID_222_" style="fill:#FFFFFF;stroke:#040000;stroke-width:8;stroke-linecap:round;stroke-linejoin:round;stroke-miterlimit:10;" d="
			M194.711,514.196c0,0,2.203,28.949,2.832,32.725c0.629,3.776,2.518,10.385,10.698,9.756c8.182-0.63,26.747-0.945,26.747-0.945"/>
		
			<path id="XMLID_221_" style="fill:none;stroke:#040000;stroke-width:8;stroke-linecap:round;stroke-linejoin:round;stroke-miterlimit:10;" d="
			M285.336,486.19c-6.294,13.846-43.425,67.969-33.984,78.667c9.439,10.698,30.208,16.992,35.242,32.726"/>
		
			<path id="XMLID_220_" style="fill:#FFFFFF;stroke:#040000;stroke-width:8;stroke-linecap:round;stroke-linejoin:round;stroke-miterlimit:10;" d="
			M287.928,600.304c-2.423,6.877-5.764,13.762-16.45,18.172c-9.503,3.922-21.747,0.641-24.172-3.324
			c-2.06-3.367,2.443-12.841,10.942-16.992c8.755-4.275,18.839-1.061,18.839-1.061"/>
		
			<path id="XMLID_219_" style="fill:#FFFFFF;stroke:#040000;stroke-width:8;stroke-linecap:round;stroke-linejoin:round;stroke-miterlimit:10;" d="
			M291.528,590.543c6.656-4.996,14.167-9.073,23.427-9.32c11.162-0.298,21.184,13.298,19.49,16.343
			c-2.357,4.242-7.674,6.25-16.535,6.597c-6.963,0.272-11.946-4.499-16.471-6.612"/>
	</g>
	<g id="saveBtn">
		<g id="save">
			<path id="XMLID_3285_" style="fill:#040000;" d="M169.694,798.229l-3.516-5.273c4.922-3.279,9.844-6.68,14.766-10.195
				c0-0.934-0.121-2.461-0.352-4.57c-0.236-3.746-0.473-6.795-0.703-9.141c-3.752-0.467-7.619-0.818-11.602-1.055l0.703-6.328
				c1.17,0.236,3.043,0.588,5.625,1.055c2.109,0.236,3.746,0.473,4.922,0.703c-0.236-1.637-0.473-3.982-0.703-7.031
				c-0.473-3.516-0.824-6.092-1.055-7.734l6.68-0.352c0.23,2.812,0.703,7.383,1.406,13.711c-0.473-4.219-0.352-3.516,0.352,2.109
				c2.812,0.473,5.855,0.703,9.141,0.703l-1.055,6.328c-0.703-0.23-1.994-0.467-3.867-0.703c-1.643-0.23-2.934-0.352-3.867-0.352
				c0.23,0.703,0.352,1.994,0.352,3.867c0.23,1.643,0.352,2.934,0.352,3.867c0.23-0.23,0.582-0.582,1.055-1.055
				c0.703-0.467,1.285-0.934,1.758-1.406l3.164,5.625c-1.643,1.406-3.516,2.812-5.625,4.219c0.467,4.922,0.703,11.02,0.703,18.281
				c0.934,9.141-3.516,13.941-13.359,14.414l-0.703-6.328c5.625,0.473,8.086-2.576,7.383-9.141c0-4.922-0.121-9.141-0.352-12.656
				C177.544,792.604,173.677,795.417,169.694,798.229z M194.304,791.901l-4.57-5.273c8.668-7.031,16.639-14.645,23.906-22.852
				l4.922,4.57c-0.236,0.236-0.703,0.588-1.406,1.055c7.734,4.455,15.584,8.086,23.555,10.898l-3.164,5.977
				c-0.939-0.467-2.109-1.055-3.516-1.758s-3.867-1.758-7.383-3.164l0.352,5.977c-1.176,0.236-2.934,0.473-5.273,0.703
				c-9.141,0.939-16.172,1.994-21.094,3.164l-0.703-5.273c-0.473,0.703-1.406,1.643-2.812,2.812
				C195.94,790.144,195.007,791.198,194.304,791.901z M236.491,754.636v6.328c-2.812,0-5.51-0.115-8.086-0.352
				c-0.703,2.812-1.176,5.625-1.406,8.438l-6.328-1.055c0.23-1.17,0.467-2.812,0.703-4.922c0.23-1.17,0.352-1.988,0.352-2.461
				c-4.455-0.23-9.141-0.352-14.062-0.352c0.23,0.939,0.352,2.461,0.352,4.57c0.23,1.879,0.352,3.285,0.352,4.219l-6.328,0.703
				c-0.236-3.516-0.352-6.68-0.352-9.492h-8.438v-6.68c2.812,0,5.504,0.121,8.086,0.352c-0.236-0.934-0.352-2.34-0.352-4.219
				c-0.236-1.637-0.352-2.928-0.352-3.867l6.68-0.352c0,1.176,0.115,2.697,0.352,4.57c0,1.879,0,3.164,0,3.867
				c1.637,0,4.219,0.121,7.734,0.352c3.279,0,5.74,0.121,7.383,0.352c0.467-2.576,0.934-5.74,1.406-9.492l6.68,0.703
				c-0.236,0.939-0.473,2.346-0.703,4.219c-0.473,2.109-0.824,3.637-1.055,4.57H236.491z M200.983,793.308l4.219,2.109
				c5.152-1.637,10.777-2.461,16.875-2.461c8.904,0,13.359,3.4,13.359,10.195c-0.939,10.547-8.559,16.172-22.852,16.875
				c-11.02-0.473-16.875-4.57-17.578-12.305C195.237,802.097,197.231,797.296,200.983,793.308z M225.593,781.003
				c-1.879-0.934-4.922-2.225-9.141-3.867c-2.346-1.17-4.104-1.988-5.273-2.461c-3.285,3.285-6.564,6.564-9.844,9.844
				c1.17-0.23,2.812-0.467,4.922-0.703C214.458,782.882,220.901,781.942,225.593,781.003z M221.726,799.284
				c-7.031,0.236-13.48,1.758-19.336,4.57c0,0.236-0.121,0.473-0.352,0.703c-0.236,0.703-0.352,1.758-0.352,3.164
				c0.23,3.752,3.516,5.746,9.844,5.977c10.547-0.23,16.172-3.279,16.875-9.141C228.405,801.042,226.175,799.284,221.726,799.284z"
				/>
			<path id="XMLID_3292_" style="fill:#040000;" d="M251.432,805.612l-3.164-5.977c4.922-2.812,9.607-5.977,14.062-9.492
				l3.164,5.977c-2.582,1.406-6.449,3.988-11.602,7.734C252.717,804.558,251.898,805.146,251.432,805.612z M266.197,779.948
				l-2.812,5.977c-1.176-0.703-2.697-1.637-4.57-2.812c-3.285-1.873-5.746-3.279-7.383-4.219l2.812-5.625
				C258.463,775.614,262.445,777.839,266.197,779.948z M255.299,818.269l0.703-6.328c2.109,0.703,4.449,1.055,7.031,1.055
				c3.516,0,5.273-2.109,5.273-6.328c0-12.42-0.703-25.428-2.109-39.023c-4.455,0-9.025,0.121-13.711,0.352v-6.328
				c1.637,0,3.867,0,6.68,0c3.043,0.236,5.273,0.352,6.68,0.352c-0.236-3.279-0.703-8.201-1.406-14.766
				c0.467,4.219,0.352,3.637-0.352-1.758l7.031-0.352c0.23,1.879,0.582,4.807,1.055,8.789c0.23,3.516,0.467,6.213,0.703,8.086
				h10.547c-0.473-0.703-1.176-1.758-2.109-3.164c-0.473-0.703-1.758-2.34-3.867-4.922l4.922-4.219
				c2.812,4.691,5.855,9.141,9.141,13.359l-4.57,4.219c-0.236-0.23-0.588-0.703-1.055-1.406v2.109
				c-4.219-0.23-8.438-0.352-12.656-0.352c0.467,4.691,0.934,11.486,1.406,20.391c0,1.176,0,2.109,0,2.812
				c5.855,4.922,11.602,9.492,17.227,13.711l-3.867,5.977c-4.219-4.219-8.559-7.965-13.008-11.25
				c0.23,1.879,0.352,3.516,0.352,4.922c0.467,10.777-3.516,15.82-11.953,15.117C260.803,819.323,258.111,818.972,255.299,818.269z
				 M280.26,789.089l-4.57-3.867c3.516-4.219,6.91-8.553,10.195-13.008l4.57,4.219c-1.176,1.406-2.934,3.516-5.273,6.328
				C283.072,785.573,281.43,787.683,280.26,789.089z M296.08,786.276l-6.68-2.109c3.516-7.965,7.734-19.803,12.656-35.508
				l6.68,2.109c-0.473,1.406-1.176,3.516-2.109,6.328c-1.176,2.812-1.994,4.922-2.461,6.328c6.795,1.406,13.826,2.461,21.094,3.164
				l-1.055,5.977c-7.268-1.406-14.65-2.461-22.148-3.164C299.947,775.026,297.953,780.651,296.08,786.276z M323.502,812.995
				l-5.625,3.867c-1.176-1.406-3.049-3.631-5.625-6.68c-2.346-3.043-4.219-5.273-5.625-6.68c-2.812,4.922-5.977,9.492-9.492,13.711
				l-5.977-2.812c3.982-5.152,7.734-10.547,11.25-16.172c-2.582-3.516-5.273-6.91-8.086-10.195l5.273-4.57
				c2.109,2.812,4.219,5.625,6.328,8.438c3.516-6.092,6.443-12.068,8.789-17.93l5.977,3.164
				c-3.049,6.564-6.564,13.244-10.547,20.039c1.637,1.643,3.867,4.219,6.68,7.734C319.865,808.425,322.096,811.122,323.502,812.995z
				"/>
			<path id="XMLID_3299_" style="fill:#040000;" d="M337.666,805.612l-6.328-2.109c3.982-11.014,7.498-21.912,10.547-32.695
				c-2.812,0-5.395,0-7.734,0l0.352-6.328c3.516,0.473,7.031,0.703,10.547,0.703c0-1.873-0.121-4.801-0.352-8.789
				c0-3.746-0.121-6.559-0.352-8.438h7.031c-0.236,5.861-0.352,11.723-0.352,17.578c0.703,0,1.873,0,3.516,0
				c1.873,0.236,3.279,0.352,4.219,0.352l-0.703,5.977c-0.703-0.23-1.879-0.352-3.516-0.352c-1.643-0.23-2.934-0.352-3.867-0.352
				v11.602c3.043,2.346,6.328,4.57,9.844,6.68l-4.219,5.273c-1.643-1.637-3.4-3.164-5.273-4.57c0,3.516,0.115,8.674,0.352,15.469
				c0,6.328,0,11.129,0,14.414l-6.328,0.352c0.467-12.887,0.467-26.016,0-39.375c-0.703,2.582-1.879,6.68-3.516,12.305
				C339.891,798.702,338.6,802.8,337.666,805.612z M366.143,759.206l4.57,2.461c1.17-0.23,2.225-0.352,3.164-0.352
				c0-1.406,0-2.812,0-4.219c-4.219,0-8.438,0.121-12.656,0.352v-6.328c1.17,0,3.164,0,5.977,0c3.043,0.236,5.273,0.352,6.68,0.352
				c0-2.109-0.121-4.219-0.352-6.328h6.328c0,2.109,0,4.34,0,6.68c1.637,0,3.516,0,5.625,0c0-0.934,0-2.109,0-3.516
				c-0.236-1.637-0.352-2.812-0.352-3.516h5.977c0,2.346,0,4.691,0,7.031c4.219,0,8.438,0,12.656,0l-0.703,6.328
				c-3.988-0.467-8.086-0.703-12.305-0.703c0,1.176,0,2.109,0,2.812c10.311,0.236,15.232,4.922,14.766,14.062
				c0.23,12.426-9.141,18.518-28.125,18.281c-12.426,0.473-18.281-4.098-17.578-13.711
				C359.814,770.692,361.924,764.128,366.143,759.206z M365.088,792.956l5.977,3.164c4.922-1.406,10.311-2.109,16.172-2.109
				c10.547,0,15.82,3.988,15.82,11.953c-0.703,10.074-8.086,15.348-22.148,15.82c-14.062,0-21.094-4.691-21.094-14.062
				C359.814,803.503,361.572,798.581,365.088,792.956z M373.877,786.628c0-2.812,0-5.504,0-8.086h-7.734v1.055
				C365.906,784.052,368.482,786.397,373.877,786.628z M390.4,805.261l-0.703,5.977c-7.504-0.467-15.117-0.703-22.852-0.703
				c1.406,3.516,5.855,5.273,13.359,5.273c10.777-0.473,16.402-3.516,16.875-9.141c-0.473-4.219-3.516-6.443-9.141-6.68
				c-6.098,0-12.893,1.055-20.391,3.164c0,0.236-0.121,0.352-0.352,0.352c-0.236,0.236-0.352,0.703-0.352,1.406
				C374.811,805.146,382.666,805.261,390.4,805.261z M373.877,772.565v-5.273c-0.473,0-1.406,0.121-2.812,0.352
				c-1.176,0.236-2.109,0.473-2.812,0.703c-0.236,1.406-0.588,2.582-1.055,3.516c0.703,0,1.873,0.121,3.516,0.352
				C372.119,772.214,373.174,772.335,373.877,772.565z M385.479,757.097c-1.879,0-3.867,0-5.977,0c0,1.176,0,2.346,0,3.516
				l5.977-0.352V757.097z M385.479,773.269c0-2.576,0-4.922,0-7.031c-0.703,0-1.643,0-2.812,0c-1.406,0.236-2.461,0.352-3.164,0.352
				c0,2.109,0,4.219,0,6.328C381.611,772.917,383.6,773.038,385.479,773.269z M385.127,786.276c0-2.34,0-4.686,0-7.031
				c-0.473,0-1.291,0-2.461,0c-1.406-0.23-2.461-0.352-3.164-0.352c0,0.703,0.115,1.994,0.352,3.867c0,1.643,0,2.934,0,3.867
				C381.727,786.628,383.484,786.513,385.127,786.276z M394.971,773.62l-0.352,6.328c-1.406-0.23-2.697-0.352-3.867-0.352v5.625
				c5.625-1.637,8.316-5.152,8.086-10.547c0.23-5.625-2.461-8.438-8.086-8.438v7.031C392.158,773.505,393.564,773.62,394.971,773.62
				z"/>
			<path id="XMLID_3310_" style="fill:#040000;" d="M426.651,782.761v-6.68c0.467,0,1.055,0.121,1.758,0.352
				c2.576,0.473,4.449,0.703,5.625,0.703c0.23-0.703,0.703-1.758,1.406-3.164c0.467-1.406,0.818-2.461,1.055-3.164
				c-3.988,0.236-9.262,0.588-15.82,1.055c-2.109,0.236-3.637,0.352-4.57,0.352l-0.352-6.328c6.092-0.467,13.59-0.818,22.5-1.055
				c0.23-0.703,0.582-1.758,1.055-3.164c0.703-2.34,1.285-4.098,1.758-5.273c-3.752,0.473-8.559,1.527-14.414,3.164l-1.406-5.625
				c7.734-2.576,18.984-4.219,33.75-4.922c12.184-0.467,18.16,3.988,17.93,13.359c3.746-0.467,7.031-0.818,9.844-1.055v6.328
				c-0.939,0.236-2.582,0.352-4.922,0.352c-2.109,0.236-3.752,0.352-4.922,0.352c-0.473,11.486-8.91,16.996-25.312,16.523
				c-3.988,0-8.322-0.23-13.008-0.703c-5.395,13.832-10.08,24.609-14.062,32.344l-6.328-2.461c4.449-7.965,9.02-18.16,13.711-30.586
				C429.815,783.464,428.058,783.233,426.651,782.761z M439.659,791.55l4.922,1.758c8.438-2.109,14.645-3.164,18.633-3.164
				c10.777,0,16.172,4.34,16.172,13.008c0,10.547-8.91,15.82-26.719,15.82c-12.426,0-18.518-4.455-18.281-13.359
				C434.616,799.757,436.374,795.065,439.659,791.55z M469.542,768.698c-2.582,0-6.68,0.236-12.305,0.703
				c-6.098,0.236-10.547,0.473-13.359,0.703c-0.236,0.703-0.703,1.994-1.406,3.867c-0.473,1.643-0.939,2.934-1.406,3.867
				c4.219,0.236,7.965,0.352,11.25,0.352C462.862,778.427,468.603,775.263,469.542,768.698z M463.214,796.823
				c-6.801,0.236-13.48,1.406-20.039,3.516c-0.703,2.109-1.055,4.219-1.055,6.328c-0.236,4.691,3.279,6.916,10.547,6.68
				c12.42-0.23,18.863-3.395,19.336-9.492C472.233,798.933,469.306,796.593,463.214,796.823z M445.987,764.479
				c2.576-0.23,6.559-0.582,11.953-1.055c5.389-0.23,9.371-0.467,11.953-0.703c-0.236-5.625-3.752-8.316-10.547-8.086
				c-1.879,0-5.395,0.236-10.547,0.703C448.097,758.151,447.157,761.2,445.987,764.479z"/>
		</g>
		
			<polygon id="XMLID_205_" style="fill:none;stroke:#040000;stroke-width:4;stroke-linecap:round;stroke-linejoin:round;stroke-miterlimit:10;" points="
			145.5,722.239 152.5,714.239 390.5,711.239 495.5,712.239 506.5,730.239 507.5,800.239 502.5,847.239 411.5,857.239 
			170.5,857.239 144.5,840.239 		"/>
	</g>
	<g id="saveNotice">
		<path id="XMLID_3771_" style="fill:#040000;" d="M156.281,660.177l1.125,0.703c0.844-0.373,1.639-0.562,2.391-0.562
			c2.155,0.095,3.28,2.063,3.375,5.906c-0.095,6.939-1.736,10.455-4.922,10.547c-2.626-0.092-3.986-2.437-4.078-7.031
			C154.077,667.116,154.78,663.928,156.281,660.177z M159.094,663.271c-0.281,0-0.611,0.141-0.984,0.422
			c-0.844,2.345-1.266,4.454-1.266,6.328c0.092,2.346,0.562,3.61,1.406,3.797c1.312-0.654,2.015-3.14,2.109-7.453
			C160.359,664.396,159.938,663.366,159.094,663.271z M166.969,684.646l-2.672,0.141c0-7.031-0.095-14.203-0.281-21.516l2.672,0.141
			c0,3.188,0.046,6.423,0.141,9.703h0.141c0.187,0.095,0.327,0.141,0.422,0.141c1.03,0,1.547-0.795,1.547-2.391
			c0-2.155-0.657-3.28-1.969-3.375l-0.141-2.391c1.217-1.312,1.92-2.764,2.109-4.359c0-0.562-0.281-0.844-0.844-0.844
			c-0.844,0-2.109,0.657-3.797,1.969l-1.125-2.531c2.342-1.779,4.359-2.672,6.047-2.672c1.688,0.189,2.577,1.266,2.672,3.234
			c0.092,2.063-0.657,3.938-2.25,5.625c1.217,1.033,1.874,2.861,1.969,5.484c-0.095,3.283-1.314,4.971-3.656,5.062
			c-0.281,0-0.657,0-1.125,0c0,1.033,0.046,2.531,0.141,4.5C166.969,682.35,166.969,683.707,166.969,684.646z M173.438,664.114
			l1.125,0.422l0.141-0.141c0.844-0.562,1.639-0.844,2.391-0.844c1.688,0,2.531,1.596,2.531,4.781
			c0.281,7.408-1.22,10.877-4.5,10.406c-1.969,0.095-2.907-1.873-2.812-5.906C172.312,669.458,172.686,666.554,173.438,664.114z
			 M176.531,684.646l0.141-2.531c0.844,0.281,1.639,0.422,2.391,0.422c1.312,0.471,1.874-1.312,1.688-5.344
			c0-5.812-0.189-11.576-0.562-17.297c-0.844-0.092-2.158-0.141-3.938-0.141c-1.782-0.092-3.094-0.141-3.938-0.141l0.141-2.812
			c4.124,0.376,8.248,0.562,12.375,0.562l-0.141,2.812l-1.547-0.141c0.092,1.688,0.187,4.359,0.281,8.016
			c0.187,3.656,0.281,6.328,0.281,8.016c0,0.281,0,0.703,0,1.266c0.092,0.658,0.141,1.174,0.141,1.547
			c0.187,4.405-1.22,6.469-4.219,6.188C178.592,685.067,177.562,684.927,176.531,684.646z M176.25,666.224
			c-0.281,0-0.562,0.141-0.844,0.422c-0.376,1.596-0.562,3.751-0.562,6.469c-0.189,1.877,0.092,2.767,0.844,2.672
			c1.03,0.095,1.547-2.295,1.547-7.172C177.234,667.208,176.904,666.413,176.25,666.224z"/>
		<path id="XMLID_3778_" style="fill:#040000;" d="M196.021,681.13c-0.281,2.155-1.266,3.28-2.953,3.375
			c-1.876-0.281-2.812-1.357-2.812-3.234c0.188-1.969,1.125-3.045,2.812-3.234C194.849,678.226,195.833,679.256,196.021,681.13z
			 M194.053,677.333l-2.109-0.141c0-0.281,0-0.844,0-1.688c0.093-1.217,0.141-2.061,0.141-2.531
			c-0.188-6.374,0.281-11.577,1.406-15.609l3.234,0.844c-1.219,3.47-1.969,7.267-2.25,11.391c-0.094,0.844-0.234,3.002-0.422,6.469
			C194.146,675.6,194.146,676.021,194.053,677.333z"/>
		<path id="XMLID_3781_" style="fill:#040000;" d="M213.117,661.724l-0.703-2.531c4.219-0.187,8.482-0.468,12.797-0.844
			l-1.406-2.109l2.531-0.984c0.562,0.844,1.125,1.782,1.688,2.812c1.592-0.187,3.094-0.326,4.5-0.422
			c-0.096-0.092-0.189-0.232-0.281-0.422c-0.189-0.187-0.33-0.327-0.422-0.422l2.109-1.266c0.467,0.657,1.217,1.596,2.25,2.812
			c0.467,0.562,0.795,0.984,0.984,1.266l-2.109,1.406c-0.096-0.187-0.236-0.373-0.422-0.562c-0.189-0.281-0.33-0.467-0.422-0.562
			c-0.844,0-2.346,0.096-4.5,0.281c1.592-0.186,1.451-0.186-0.422,0c0.844,1.406,1.732,2.812,2.672,4.219
			c0.092-0.281,0.281-0.703,0.562-1.266c0.373-0.749,0.654-1.357,0.844-1.828l2.391,1.266c-0.189,0.376-0.518,0.938-0.984,1.688
			c-0.562,1.125-1.033,1.923-1.406,2.391c2.25,3.375,3.889,5.721,4.922,7.031l-2.391,1.266c-1.221-1.874-2.486-3.797-3.797-5.766
			c-0.658,1.125-1.266,2.25-1.828,3.375l-2.531-1.125c1.029-1.406,1.969-2.904,2.812-4.5c-1.406-2.25-2.812-4.451-4.219-6.609
			c-2.158,0.095-4.83,0.33-8.016,0.703c-0.096,0.376-0.236,0.798-0.422,1.266c2.998,0.095,6.047,0.095,9.141,0l-0.141,2.391
			c-3.002,0-6.328,0-9.984,0c-0.281,0.939-0.752,2.299-1.406,4.078c-0.658,1.877-1.174,3.283-1.547,4.219l-2.531-0.844
			c1.125-2.623,2.391-6.188,3.797-10.688C214.568,661.442,213.865,661.537,213.117,661.724z M213.82,682.958l-2.391-0.703
			c0.092-0.187,0.186-0.422,0.281-0.703c1.125-2.436,1.873-4.546,2.25-6.328l2.391,0.844
			C215.508,677.944,214.664,680.241,213.82,682.958z M218.461,666.224l1.969,0.844c1.592-0.468,2.998-0.703,4.219-0.703
			c2.061-0.092,3.045,0.798,2.953,2.672c-0.281,3.751-2.812,5.766-7.594,6.047c-2.627,0-3.938-0.89-3.938-2.672
			C216.07,671.005,216.865,668.944,218.461,666.224z M219.445,675.364l2.531,0.562c-0.658,1.688-0.939,3.002-0.844,3.938
			c-0.189,1.688,1.357,2.485,4.641,2.391c2.812,0,5.484-0.468,8.016-1.406l0.562,2.391c-2.812,0.936-5.766,1.406-8.859,1.406
			c-4.877,0.187-7.172-1.36-6.891-4.641C218.602,678.975,218.883,677.428,219.445,675.364z M223.945,668.614
			c-1.125,0.095-2.627,0.471-4.5,1.125c-0.471,0.844-0.703,1.596-0.703,2.25c0,0.562,0.373,0.844,1.125,0.844
			c3.094-0.281,4.781-1.357,5.062-3.234C224.93,668.944,224.6,668.614,223.945,668.614z M229.852,679.442l-2.109,0.984
			c-0.562-1.217-1.455-2.812-2.672-4.781l2.25-0.984C227.975,676.067,228.818,677.663,229.852,679.442z M238.43,678.599
			l-1.688,1.969c-1.314-1.406-2.812-2.718-4.5-3.938l1.688-1.688C235.055,676.162,236.553,677.382,238.43,678.599z"/>
		<path id="XMLID_3789_" style="fill:#040000;" d="M246.83,669.177l-2.953,0.281c-0.188-3.375-0.516-6.092-0.984-8.156l2.812-0.422
			c0,0.095,0,0.281,0,0.562c0.093,0.376,0.141,0.657,0.141,0.844c1.125-0.281,2.25-0.468,3.375-0.562
			c-0.938-1.217-1.922-2.391-2.953-3.516l2.25-1.547c0.469,0.471,1.125,1.22,1.969,2.25c0.844,0.938,1.453,1.688,1.828,2.25
			c0.281,0,0.75-0.045,1.406-0.141c1.594-0.187,3.468-0.373,5.625-0.562c0.562-0.654,1.312-1.688,2.25-3.094
			c1.031-1.312,1.779-2.296,2.25-2.953l2.25,1.688c-1.125,1.314-2.158,2.672-3.094,4.078c0.562,0,1.125,0,1.688,0
			c3.844,0,5.717,1.266,5.625,3.797c0.092,1.406-0.516,3.188-1.828,5.344l-2.672-1.406c0.936-1.125,1.406-2.25,1.406-3.375
			s-0.752-1.688-2.25-1.688c-7.125,0-13.407,0.752-18.844,2.25C246.314,666.505,246.549,667.866,246.83,669.177z M247.393,685.771
			l-1.969-1.969c4.5-2.718,8.297-6.891,11.391-12.516l2.25,1.547c-0.562,0.938-1.125,1.828-1.688,2.672l2.109,0.281
			c-0.751,2.25-1.125,3.986-1.125,5.203c-0.094,1.314,0.796,1.923,2.672,1.828c2.531-0.092,5.062-0.562,7.594-1.406l0.844,2.531
			c-2.906,0.844-5.859,1.266-8.859,1.266c-3.469,0-5.156-1.125-5.062-3.375c0-1.779,0.188-3.28,0.562-4.5
			C253.673,680.427,250.768,683.239,247.393,685.771z M251.611,678.599l-2.953,0.422c-0.094-3.938-0.375-7.921-0.844-11.953
			l2.953-0.281c0,0.376,0,0.798,0,1.266c3.375-0.936,6.469-1.406,9.281-1.406c4.125-0.092,6.047,1.36,5.766,4.359
			c0,2.439-0.562,5.298-1.688,8.578l-2.953-0.844c1.031-2.25,1.547-4.641,1.547-7.172c0.188-1.688-0.797-2.482-2.953-2.391
			c-2.344,0-5.297,0.517-8.859,1.547C251.001,673.255,251.236,675.881,251.611,678.599z M258.221,659.192l-2.391,1.547
			c-0.094-0.092-0.234-0.281-0.422-0.562c-1.219-1.688-2.203-2.953-2.953-3.797l2.25-1.547c0.562,0.562,1.266,1.455,2.109,2.672
			C257.47,658.257,257.939,658.819,258.221,659.192z"/>
		<path id="XMLID_3794_" style="fill:#040000;" d="M284.608,683.942l-2.391-0.703c0.749-5.344,1.171-11.437,1.266-18.281
			c0-2.25-0.611-3.326-1.828-3.234c-0.844,0-2.018,0.281-3.516,0.844c0,1.406,0.046,2.767,0.141,4.078
			c1.312,0.281,2.577,0.471,3.797,0.562l-0.562,2.531c-1.033-0.281-2.109-0.468-3.234-0.562c0,0.376,0.046,0.984,0.141,1.828
			c0,0.844,0,1.501,0,1.969c1.125,0.281,2.342,0.471,3.656,0.562l-0.562,2.531c-0.938-0.281-1.923-0.468-2.953-0.562
			c0,0.657,0.046,1.596,0.141,2.812c0.092,2.439,0.187,4.219,0.281,5.344l-2.531,0.281c-0.095-2.999-0.235-7.031-0.422-12.094
			c-0.189-5.53-0.376-9.89-0.562-13.078h2.531v1.125c1.688-0.468,3.045-0.703,4.078-0.703c2.718-0.187,4.029,1.828,3.938,6.047
			C285.92,671.146,285.452,677.382,284.608,683.942z M292.062,680.567l-1.969-1.125c1.125-1.969,2.25-3.983,3.375-6.047
			c-1.22-1.125-2.485-2.201-3.797-3.234c-0.562,2.531-0.844,4.83-0.844,6.891c-0.095,3.189,1.03,4.689,3.375,4.5
			c3.094-0.281,5.906-1.311,8.438-3.094c-0.471-3.656-0.984-7.264-1.547-10.828l2.531-0.281c0,0.189,0.046,0.471,0.141,0.844
			c0.654,6.845,1.312,11.861,1.969,15.047h-2.531c0-0.092,0-0.373,0-0.844c-0.095-0.468-0.141-0.844-0.141-1.125
			c-3.47,1.782-6.563,2.672-9.281,2.672c-3.751,0.092-5.579-2.061-5.484-6.469c0-3.094,0.468-6.515,1.406-10.266l2.531,0.703
			c-0.095,0.657-0.281,1.314-0.562,1.969l1.547-1.969c1.125,1.125,2.25,2.25,3.375,3.375c1.125-2.25,2.109-4.405,2.953-6.469
			l2.109,0.984c-1.033,2.345-2.109,4.735-3.234,7.172c0.468,0.376,1.125,0.938,1.969,1.688c0.936,0.752,1.593,1.314,1.969,1.688
			l-1.688,2.109c-1.125-1.125-2.25-2.25-3.375-3.375c-0.376,0.562-0.893,1.455-1.547,2.672
			C292.997,678.975,292.435,679.913,292.062,680.567z M303.452,660.739v2.531c-3.846-0.187-9.33-0.187-16.453,0
			c0-1.125-0.049-1.92-0.141-2.391c0.749,0,1.969,0,3.656,0c1.688,0.095,2.953,0.141,3.797,0.141
			c-0.189-0.281-0.517-0.749-0.984-1.406c-0.752-1.217-1.406-2.155-1.969-2.812l2.25-0.984c0.187,0.281,0.514,0.752,0.984,1.406
			c0.468,0.752,1.312,2.018,2.531,3.797C299.279,661.021,301.389,660.929,303.452,660.739z"/>
		<path id="XMLID_3798_" style="fill:#040000;" d="M318.197,670.021l-2.812,0.281c-0.376-2.25-0.844-4.5-1.406-6.75
			c-0.471,0.281-1.125,0.752-1.969,1.406c-0.938,0.562-1.642,1.033-2.109,1.406l-1.547-2.25c3.748-2.25,7.218-4.687,10.406-7.312
			l1.828,2.25c-1.406,0.939-2.812,1.923-4.219,2.953C316.837,664.631,317.445,667.303,318.197,670.021z M321.01,666.083
			l-0.844-2.531c1.969-0.373,3.889-0.844,5.766-1.406c-0.376-0.936-0.984-2.296-1.828-4.078c-0.471-1.125-0.844-1.969-1.125-2.531
			l2.672-0.703c0.187,0.376,0.422,0.984,0.703,1.828c0.373,0.938,1.03,2.531,1.969,4.781c0.373-0.187,0.89-0.373,1.547-0.562
			c0.654-0.281,1.125-0.468,1.406-0.562l0.703,2.391c-0.281,0.095-0.703,0.189-1.266,0.281c-0.657,0.189-1.125,0.33-1.406,0.422
			c0.844,2.063,1.779,4.078,2.812,6.047c1.406-0.281,2.812-0.467,4.219-0.562l0.141,2.531c-2.907,0.281-7.221,0.752-12.938,1.406
			c-0.657,0.095-1.174,0.141-1.547,0.141l0.562,0.562c-0.281,0.095-0.517,0.281-0.703,0.562c-1.314,3.188-1.969,5.72-1.969,7.594
			c0,1.033,0.422,1.547,1.266,1.547c1.406,0,2.904-0.654,4.5-1.969l1.969,2.109c-2.439,1.593-4.641,2.391-6.609,2.391
			c-2.531-0.095-3.846-1.314-3.938-3.656c0-1.406,0.327-3.094,0.984-5.062c-2.531,1.969-5.017,4.032-7.453,6.188l-1.688-1.969
			c3.467-2.437,6.75-5.062,9.844-7.875c-3.002,0.281-6.001,0.657-9,1.125l-0.281-2.672c3.938-0.281,7.875-0.654,11.812-1.125
			c-0.095-0.281-0.281-0.654-0.562-1.125c-0.189-0.468-0.376-0.795-0.562-0.984l2.391-0.984c0.187,0.281,0.422,0.752,0.703,1.406
			c0.281,0.562,0.468,1.033,0.562,1.406c0.654-0.092,1.593-0.232,2.812-0.422c1.217-0.092,2.109-0.187,2.672-0.281
			c-0.281-0.654-0.657-1.593-1.125-2.812c-0.562-1.311-0.984-2.25-1.266-2.812C324.853,664.677,322.884,665.334,321.01,666.083z
			 M337.322,682.677l-1.828,1.688c-1.125-0.752-2.812-2.015-5.062-3.797c-2.345-1.779-4.078-3.094-5.203-3.938l1.828-1.969
			c0.281,0.189,0.654,0.471,1.125,0.844c0.562,0.471,0.936,0.798,1.125,0.984c1.406-0.936,2.672-2.015,3.797-3.234l1.828,1.828
			c-1.406,1.125-2.58,2.158-3.516,3.094c1.03,0.939,2.718,2.25,5.062,3.938C336.852,682.396,337.133,682.585,337.322,682.677z
			 M336.479,662.005l-2.25,1.547c-1.314-1.874-2.812-3.467-4.5-4.781l2.109-1.406C333.244,659.052,334.791,660.599,336.479,662.005z
			"/>
		<path id="XMLID_3803_" style="fill:#040000;" d="M341.795,675.786l-1.547-2.531c6.469-2.718,9.936-5.436,10.406-8.156
			c0-0.562-0.376-0.844-1.125-0.844c-1.782,0.095-4.127,0.893-7.031,2.391l-1.406-2.391c2.999-1.498,5.857-2.296,8.578-2.391
			c2.531,0,3.797,1.033,3.797,3.094c0,1.501-0.798,3.048-2.391,4.641c0.654,0.471,1.452,0.984,2.391,1.547l-1.547,1.828
			c-0.844-0.654-1.688-1.266-2.531-1.828c-0.376,0.376-0.798,0.703-1.266,0.984c0,0.562,0,1.079,0,1.547
			c1.312,0.562,2.577,1.079,3.797,1.547l-0.844,2.25c-0.281-0.187-0.752-0.422-1.406-0.703c-0.562-0.281-1.033-0.468-1.406-0.562
			c0.281,3.002,0.562,5.86,0.844,8.578h-2.953c0-3.467-0.141-7.123-0.422-10.969C344.513,674.569,343.201,675.224,341.795,675.786z
			 M351.076,658.771l-1.547,1.828c-0.471-0.373-1.125-0.936-1.969-1.688c-1.033-0.936-1.828-1.639-2.391-2.109l1.547-1.688
			c0.468,0.377,1.171,0.938,2.109,1.688C349.856,657.741,350.605,658.397,351.076,658.771z M368.795,666.364l-2.672-1.125
			c1.217-1.406,1.779-2.296,1.688-2.672c0.092-0.373-0.33-0.562-1.266-0.562c-0.189,0-0.562,0-1.125,0
			c-0.562,0.095-0.984,0.141-1.266,0.141c0,1.969,0.046,4.173,0.141,6.609c0.281-0.092,0.703-0.141,1.266-0.141
			c3.375,0,5.014,1.406,4.922,4.219c-0.095,2.345-1.22,4.549-3.375,6.609c1.593,0.938,3.14,1.924,4.641,2.953l-1.828,2.25
			c-0.657-0.562-1.782-1.266-3.375-2.109c-0.752-0.468-1.314-0.844-1.688-1.125c-1.688,1.22-3.751,2.342-6.188,3.375l-1.828-1.969
			c1.969-0.844,3.797-1.874,5.484-3.094c-0.376-0.281-0.938-0.654-1.688-1.125c-0.844-0.468-1.455-0.795-1.828-0.984l1.547-2.531
			c0.468,0.281,1.171,0.752,2.109,1.406c0.936,0.562,1.639,1.033,2.109,1.406c1.874-1.874,2.812-3.656,2.812-5.344
			c0-0.936-0.611-1.406-1.828-1.406c-1.969,0.096-4.313,0.844-7.031,2.25l-1.266-1.828c-0.562,4.313-0.984,8.627-1.266,12.938
			l-3.094-0.281c1.03-6.093,1.828-12.938,2.391-20.531c-0.095,0.095-0.235,0.141-0.422,0.141l-0.844-2.531
			c1.779-0.562,4.17-1.03,7.172-1.406c0-0.654-0.049-1.593-0.141-2.812c0-0.749,0-1.312,0-1.688h3.234
			c-0.095,1.314-0.141,2.672-0.141,4.078c0.844,0,1.593,0,2.25,0c3.094,0,4.592,0.752,4.5,2.25
			C370.996,662.943,370.293,664.491,368.795,666.364z M361.342,669.458c0-2.25,0-4.546,0-6.891c-1.033,0-1.969,0.141-2.812,0.422
			c-0.471,2.439-0.844,5.062-1.125,7.875C358.902,670.21,360.217,669.739,361.342,669.458z"/>
		<path id="XMLID_3808_" style="fill:#040000;" d="M376.421,677.052l-1.406-2.391c0.654-0.373,1.547-0.936,2.672-1.688
			c1.217-0.654,2.109-1.171,2.672-1.547c0-1.874-0.095-3.797-0.281-5.766c-1.406,0-2.812,0-4.219,0l0.281-2.953
			c0.468,0,1.076,0.049,1.828,0.141c0.844,0,1.452,0.049,1.828,0.141c0-0.092,0-0.232,0-0.422c-0.095-1.688-0.281-3.656-0.562-5.906
			l2.812-0.141c0.187,2.25,0.327,4.408,0.422,6.469h3.516v1.688c2.531-3.656,4.451-6.609,5.766-8.859l2.25,1.406
			c-0.844,1.125-1.688,2.345-2.531,3.656c2.531-0.654,4.687-0.984,6.469-0.984c4.311-0.092,6.42,2.299,6.328,7.172
			c-0.095,4.689-0.611,9.189-1.547,13.5c-0.844,3.186-2.58,4.732-5.203,4.641c-1.501,0-2.953-0.235-4.359-0.703l0.703-2.391
			c1.312,0.562,2.482,0.844,3.516,0.844c1.406,0.095,2.342-0.936,2.812-3.094c0.749-3.467,1.171-7.686,1.266-12.656
			c0.281-3.375-0.984-4.922-3.797-4.641c-2.158,0.095-4.922,0.611-8.297,1.547c-0.376,0.471-0.844,1.174-1.406,2.109
			c-0.281,0.471-0.471,0.798-0.562,0.984l-2.25-1.547c-0.844,0-1.688,0-2.531,0c0.187,1.406,0.281,2.812,0.281,4.219
			c0.187-0.187,0.468-0.373,0.844-0.562c0.373-0.281,0.654-0.468,0.844-0.562l1.266,2.391c-0.281,0.189-0.752,0.471-1.406,0.844
			c-0.562,0.377-1.033,0.657-1.406,0.844c0,0.281,0,0.658,0,1.125c0.187,2.626,0.281,4.313,0.281,5.062
			c0.468,4.873-1.455,6.982-5.766,6.328l-0.141-2.672c2.25,0.189,3.28-0.749,3.094-2.812c0-1.593,0-3.421,0-5.484
			C379.185,675.224,377.827,676.116,376.421,677.052z M389.358,671.286l-2.25-0.703c0.844-1.969,1.639-3.938,2.391-5.906
			l2.109,0.703c-0.095,0.376-0.235,0.798-0.422,1.266c2.531,0,5.014-0.046,7.453-0.141v2.109c-1.314,0.095-2.767,0.141-4.359,0.141
			c0,0.844,0,1.688,0,2.531c0.562-0.092,1.452-0.232,2.672-0.422c1.125-0.187,1.969-0.327,2.531-0.422l0.141,1.969
			c-1.688,0.376-3.47,0.703-5.344,0.984c0.187,1.596,0.281,3.188,0.281,4.781c0.654-0.092,1.312-0.281,1.969-0.562
			c0-0.373-0.049-0.89-0.141-1.547c-0.095-0.749-0.189-1.266-0.281-1.547l2.25-0.141c0.092,0.657,0.232,1.736,0.422,3.234
			c0.092,1.314,0.187,2.299,0.281,2.953l-2.109,0.281c-0.095-0.281-0.141-0.607-0.141-0.984c-2.158,0.657-4.127,1.033-5.906,1.125
			c-2.439,0-3.656-1.03-3.656-3.094c0-1.312,0.281-2.437,0.844-3.375l2.391,0.703c-0.562,0.938-0.844,1.736-0.844,2.391
			c0,0.752,0.562,1.125,1.688,1.125c0.281,0,0.562,0,0.844,0c0-1.688-0.049-3.375-0.141-5.062c-0.562,0.095-1.501,0.235-2.812,0.422
			c-1.22,0.189-2.158,0.33-2.812,0.422l-0.281-2.25c1.969-0.187,3.938-0.422,5.906-0.703c0-0.281,0-0.703,0-1.266
			c-0.095-0.654-0.141-1.171-0.141-1.547c-0.562,0-1.033,0-1.406,0c-0.095,0.281-0.281,0.703-0.562,1.266
			C389.731,670.583,389.545,671.005,389.358,671.286z"/>
		<path id="XMLID_3811_" style="fill:#040000;" d="M413.555,666.786l-2.672,0.422c-0.281-2.623-0.703-5.203-1.266-7.734l2.672-0.422
			c0.092,0.562,0.141,1.033,0.141,1.406c1.406-0.373,4.265-0.844,8.578-1.406c-0.657-0.844-1.36-1.688-2.109-2.531l2.391-1.406
			c0.936,1.22,1.969,2.391,3.094,3.516c0.187,0,0.514,0,0.984,0c1.688-0.187,3.234-0.281,4.641-0.281
			c4.124-0.092,6.139,1.22,6.047,3.938c-0.095,1.314-0.562,2.721-1.406,4.219l-2.672-1.266c0.654-1.125,0.984-2.015,0.984-2.672
			c0.092-0.936-0.844-1.406-2.812-1.406c-6.469,0-12.234,0.703-17.297,2.109C413.038,664.396,413.273,665.569,413.555,666.786z
			 M410.32,684.786v-2.672c2.342,0,5.906-0.092,10.688-0.281c-0.281,0-0.049,0,0.703,0c0-0.749,0-1.828,0-3.234
			c-0.095-1.406-0.141-2.437-0.141-3.094c-1.501,0-3.892,0.095-7.172,0.281c-0.657,0-1.125,0-1.406,0v-2.953
			c3.186,0.095,6.188,0.141,9,0.141c2.342,0,5.857-0.092,10.547-0.281v2.812c-0.657,0-1.642,0-2.953,0
			c-2.345-0.092-4.032-0.092-5.062,0c0,0.471,0,1.174,0,2.109c-0.095,1.782-0.095,3.143,0,4.078
			c3.843-0.187,7.686-0.422,11.531-0.703v2.391C426.397,683.661,417.819,684.129,410.32,684.786z M413.133,671.989l-1.547-2.109
			c3.375-2.155,5.952-4.078,7.734-5.766l1.688,2.25c-1.22,0.844-3.188,2.25-5.906,4.219
			C414.258,671.241,413.601,671.708,413.133,671.989z M433.805,669.458l-1.969,1.969c-2.345-2.25-4.735-4.124-7.172-5.625
			l1.969-2.109C428.883,665.661,431.273,667.584,433.805,669.458z"/>
		<path id="XMLID_3816_" style="fill:#040000;" d="M443.21,673.677c-1.501-0.373-2.345-1.125-2.531-2.25
			c-0.095-0.936,0.187-1.779,0.844-2.531c0.844-1.125,2.015-1.357,3.516-0.703c0.844,0.752,1.312,1.596,1.406,2.531
			C446.35,672.601,445.271,673.585,443.21,673.677z M452.632,671.286v-0.562c0.092-1.498,0.844-2.437,2.25-2.812
			c0.936,0,1.639,0.141,2.109,0.422c0.936,0.752,1.406,1.596,1.406,2.531c0,0.657-0.235,1.174-0.703,1.547
			c-0.562,0.752-1.547,1.174-2.953,1.266C453.521,673.114,452.818,672.319,452.632,671.286z M464.444,671.146v-0.562
			c0.187-1.498,0.984-2.437,2.391-2.812c0.654-0.092,1.357,0.096,2.109,0.562c0.749,0.658,1.125,1.455,1.125,2.391
			c-0.095,0.938-0.33,1.501-0.703,1.688c-0.376,0.562-1.174,0.938-2.391,1.125C465.569,673.255,464.726,672.46,464.444,671.146z"/>
		<path id="XMLID_3820_" style="fill:#040000;" d="M478.008,673.677c-1.501-0.373-2.345-1.125-2.531-2.25
			c-0.095-0.936,0.187-1.779,0.844-2.531c0.844-1.125,2.015-1.357,3.516-0.703c0.844,0.752,1.312,1.596,1.406,2.531
			C481.147,672.601,480.068,673.585,478.008,673.677z M487.43,671.286v-0.562c0.092-1.498,0.844-2.437,2.25-2.812
			c0.936,0,1.639,0.141,2.109,0.422c0.936,0.752,1.406,1.596,1.406,2.531c0,0.657-0.235,1.174-0.703,1.547
			c-0.562,0.752-1.547,1.174-2.953,1.266C488.319,673.114,487.616,672.319,487.43,671.286z M499.242,671.146v-0.562
			c0.187-1.498,0.984-2.437,2.391-2.812c0.654-0.092,1.357,0.096,2.109,0.562c0.749,0.658,1.125,1.455,1.125,2.391
			c-0.095,0.938-0.33,1.501-0.703,1.688c-0.376,0.562-1.174,0.938-2.391,1.125C500.367,673.255,499.523,672.46,499.242,671.146z"/>
	</g>
</g>
</svg>
